<?xml version="1.0" encoding="UTF-8"?>
<svg width="2550px" height="317px" viewBox="0 0 2550 317" version="1.1" xmlns="http://www.w3.org/2000/svg" xmlns:xlink="http://www.w3.org/1999/xlink">
    <!-- Generator: Sketch 47.1 (45422) - http://www.bohemiancoding.com/sketch -->
    <title>nihbanner</title>
    <desc>Created with Sketch.</desc>
    <defs>
        <linearGradient x1="50%" y1="99.350287%" x2="50%" y2="99.350287%" id="linearGradient-1" offset="0%">
            <stop stop-color="#326297"></stop>
            <stop stop-color="#000000" stop-opacity="0.5"></stop>
        </linearGradient>
        <linearGradient x1="50%" y1="0%" x2="50%" y2="100%" id="linearGradient-2" offset="0%">
            <stop stop-color="#326297"></stop>
            <stop stop-color="#000000" stop-opacity="0.5"></stop>
        </linearGradient>
        <linearGradient x1="50%" y1="0%" x2="50%" y2="100%" id="linearGradient-3">
            <stop stop-color="#326297" offset="97.7598852%"></stop>
            <stop stop-color="#000000" stop-opacity="0.5" offset="100%"></stop>
        </linearGradient>
    </defs>
    <g id="Page-1" stroke="none" stroke-width="1" fill="none" fill-rule="evenodd">
        <g id="nihbanner">
            <rect id="Rectangle" fill="#D8D8D8" fill-rule="nonzero" x="19" y="0" width="2531" height="317" rx="28"></rect>
            <g id="Desktop-HD-1">
                <g id="Desktop-HD">
                    <g id="nihbanner3">
                        <path d="M2171.35274,245.5 L2136.17204,245.5 L2136.17204,274.5 L2177.38372,274.5 L2177.38372,283.5 L2126.12041,283.5 L2126.12041,202.5 L2176.37855,202.5 L2176.37855,211.5 L2136.17204,211.5 L2136.17204,237.5 L2171.35274,237.5 L2171.35274,245.5 Z M2209.24738,245.4 L2222.61604,223.5 L2234.678,223.5 L2214.97681,253.2 L2235.2811,283.5 L2223.31966,283.5 L2209.3479,261 L2195.47665,283.5 L2183.51521,283.5 L2203.8195,253.2 L2184.11831,223.5 L2196.07975,223.5 L2209.24738,245.4 Z M2296.99809,254.3 C2296.99809,263.5 2294.88725,270.9 2290.56505,276.5 C2286.24285,282.1 2280.51342,284.9 2273.27625,284.9 C2265.83805,284.9 2260.0081,282.6 2255.78642,277.9 L2255.78642,306.5 L2245.73479,306.5 L2245.73479,223.5 L2254.88177,223.5 L2255.38435,230.2 C2259.60604,225 2265.5365,222.4 2273.17573,222.4 C2280.51342,222.4 2286.34337,225.1 2290.66557,230.6 C2294.98777,236.1 2297.09861,243.6 2297.09861,253.4 L2297.09861,254.3 L2296.99809,254.3 L2296.99809,254.3 Z M2286.24285,252.9 C2286.24285,246.1 2284.83562,240.7 2281.92065,236.8 C2279.00568,232.9 2274.98503,230.9 2269.95921,230.9 C2263.7272,230.9 2259.00294,233.7 2255.88693,239.2 L2255.88693,268 C2259.00294,273.5 2263.7272,276.2 2270.05973,276.2 C2274.98503,276.2 2279.00568,274.2 2281.92065,270.3 C2284.83562,266.4 2286.24285,260.6 2286.24285,252.9 Z M2321.122,283.5 L2311.07037,283.5 L2311.07037,197.5 L2321.122,197.5 L2321.122,283.5 Z M2335.19428,252.8 C2335.19428,246.9 2336.40048,241.6 2338.71235,236.8 C2341.02423,232.1 2344.34126,228.4 2348.46243,225.9 C2352.5836,223.4 2357.40838,222 2362.73574,222 C2370.97808,222 2377.71267,224.8 2382.839,230.5 C2387.96533,236.2 2390.47824,243.8 2390.47824,253.2 L2390.47824,253.9 C2390.47824,259.8 2389.37256,265.1 2387.06068,269.7 C2384.74881,274.3 2381.53229,278 2377.3106,280.6 C2373.08892,283.2 2368.26414,284.5 2362.83626,284.5 C2354.59392,284.5 2347.95985,281.7 2342.83352,276 C2337.70719,270.3 2335.19428,262.8 2335.19428,253.4 L2335.19428,252.8 L2335.19428,252.8 Z M2345.34643,254.1 C2345.34643,260.8 2346.85417,266.1 2349.97017,270.2 C2353.08618,274.3 2357.20735,276.3 2362.43419,276.3 C2367.66104,276.3 2371.88272,274.2 2374.99873,270.1 C2378.11473,266 2379.62248,260.3 2379.62248,252.9 C2379.62248,246.3 2378.01422,240.9 2374.89821,236.8 C2371.78221,232.7 2367.56052,230.6 2362.33368,230.6 C2357.20735,230.6 2353.08618,232.6 2349.97017,236.7 C2346.85417,240.8 2345.34643,246.5 2345.34643,254.1 Z M2432.69508,232.7 C2431.08681,232.4 2429.37804,232.3 2427.56875,232.3 C2420.73364,232.3 2416.10989,235.2 2413.59698,240.9 L2413.59698,283.5 L2403.54535,283.5 L2403.54535,223.5 L2413.29543,223.5 L2413.49647,230.5 C2416.91402,225.1 2421.7388,222.4 2428.07133,222.4 C2430.08165,222.4 2431.68991,222.7 2432.69508,223.2 L2432.69508,232.7 L2432.69508,232.7 Z M2465.46338,284.8 C2457.32156,284.8 2450.58697,282.1 2445.46064,276.8 C2440.33431,271.5 2437.72089,264.3 2437.72089,255.3 L2437.72089,253.4 C2437.72089,247.4 2438.82657,242.1 2441.13844,237.4 C2443.45032,232.7 2446.66684,229 2450.78801,226.4 C2454.90917,223.8 2459.33189,222.4 2464.15667,222.4 C2471.99694,222.4 2478.12844,225 2482.45064,230.1 C2486.77284,235.2 2488.98419,242.6 2488.98419,252.3 L2488.98419,256.6 L2448.07407,256.6 C2448.17458,262.5 2449.98388,267.3 2453.30091,271 C2456.61795,274.7 2460.83963,276.5 2465.96597,276.5 C2469.58455,276.5 2472.70056,275.8 2475.21346,274.3 C2477.72637,272.8 2479.93773,270.8 2481.84754,268.4 L2488.18006,273.3 C2483.15425,280.9 2475.51501,284.8 2465.46338,284.8 Z M2464.3577,230.2 C2460.13602,230.2 2456.71847,231.7 2453.80349,234.7 C2450.88852,237.7 2449.17975,242 2448.57665,247.4 L2478.93257,247.4 L2478.93257,246.6 C2478.63102,241.4 2477.22379,237.3 2474.71088,234.4 C2472.19797,231.5 2468.6799,230.2 2464.3577,230.2 Z M2530.19587,232.7 C2528.58761,232.4 2526.87883,232.3 2525.06954,232.3 C2518.23443,232.3 2513.61068,235.2 2511.09778,240.9 L2511.09778,283.5 L2501.04615,283.5 L2501.04615,223.5 L2510.79623,223.5 L2510.99726,230.5 C2514.41481,225.1 2519.23959,222.4 2525.57212,222.4 C2527.58245,222.4 2529.19071,222.7 2530.19587,223.2 L2530.19587,232.7 L2530.19587,232.7 Z" id="NIAID-Explorer" fill="#326297" fill-rule="nonzero"></path>
                        <g id="NIHBanner2">
                            <g id="Artboard-2-1">
                                <g id="Artboard-2">
                                    <g id="National-Institute-o" transform="translate(581.000000, 39.000000)">
                                        <g id="path-3-link" fill="#326297">
                                            <path d="M65.319698,88 L55.770651,88 L16.468785,26.1 L16.167236,26.2 L16.167236,88 L5.110445,88 L5.110445,8 L14.659492,8 L53.961358,69.8 L54.262907,69.7 L54.262907,8 L65.319698,8 L65.319698,88 L65.319698,88 Z M119.90004,88 C119.497975,86.2 119.196426,84.6 118.995393,83.2 C118.794361,81.8 118.693844,80.4 118.593328,79 C116.583002,81.9 113.869063,84.3 110.652542,86.2 C107.436021,88.1 103.817434,89.1 100.098332,89.1 C93.866322,89.1 89.041541,87.5 85.82502,84.3 C82.507983,81.1 80.899722,76.7 80.899722,71.1 C80.899722,65.4 83.211597,60.9 87.835346,57.7 C92.459095,54.5 98.79162,52.9 106.732407,52.9 L118.593328,52.9 L118.593328,47.1 C118.593328,43.7 117.487649,41 115.376807,39 C113.165449,37 110.14996,36 106.129309,36 C102.611239,36 99.696267,36.9 97.484909,38.6 C95.27355,40.3 94.167871,42.4 94.167871,44.9 L83.613662,44.9 L83.513145,44.6 C83.312113,40.3 85.422955,36.5 89.745155,32.9 C94.067355,29.3 99.796783,27.6 106.732407,27.6 C113.567514,27.6 119.196426,29.3 123.317593,32.7 C127.539277,36.1 129.650119,40.9 129.650119,47.3 L129.650119,76 C129.650119,78.1 129.750635,80.2 129.951668,82.2 C130.152701,84.2 130.554766,86.1 131.157863,88.1 L119.90004,88 L119.90004,88 Z M101.807109,79.5 C105.727244,79.5 109.245314,78.5 112.461835,76.5 C115.678356,74.5 117.688681,72.2 118.593328,69.6 L118.593328,60 L106.430858,60 C102.108658,60 98.590588,61.1 95.977164,63.3 C93.363741,65.5 92.057029,68.1 92.057029,71 C92.057029,73.6 92.86116,75.7 94.569936,77.2 C96.278713,78.7 98.590588,79.5 101.807109,79.5 L101.807109,79.5 L101.807109,79.5 Z M159.805004,14 L159.805004,28 L170.861795,28 L170.861795,36 L159.805004,36 L159.805004,71.9 C159.805004,74.7 160.408102,76.6 161.614297,77.8 C162.820492,78.9 164.328237,79.5 166.338562,79.5 C166.94166,79.5 167.645274,79.4 168.449404,79.3 C169.253535,79.2 169.856632,79 170.45973,78.8 L171.967474,86.2 C171.163344,86.9 169.957149,87.4 168.348888,87.8 C166.740627,88.2 165.132367,88.4 163.524106,88.4 C159.000874,88.4 155.482804,87.1 152.768864,84.4 C150.054925,81.7 148.748213,77.6 148.748213,72 L148.748213,36 L138.696585,36 L138.696585,28 L148.748213,28 L148.748213,14 L159.805004,14 L159.805004,14 Z M195.990866,87 L184.934075,87 L184.934075,28 L195.990866,28 L195.990866,87 L195.990866,87 Z M195.990866,13 L184.934075,13 L184.934075,2 L195.990866,2 L195.990866,13 L195.990866,13 Z M210.063145,57.3 C210.063145,48.5 212.475536,41.3 217.199801,35.7 C221.924067,30 228.457625,27.2 236.599444,27.2 C244.841779,27.2 251.375338,30 256.099603,35.7 C260.924384,41.4 263.236259,48.6 263.236259,57.4 L263.236259,58.6 C263.236259,67.4 260.823868,74.6 256.099603,80.3 C251.375338,85.9 244.841779,88.7 236.599444,88.7 C228.357109,88.7 221.924067,85.9 217.099285,80.2 C212.274504,74.6 209.962629,67.4 209.962629,58.6 L209.962629,57.3 L210.063145,57.3 Z M221.119936,58.5 C221.119936,64.7 222.426648,69.8 225.040071,73.8 C227.653495,77.8 231.57363,79.8 236.69996,79.8 C241.826291,79.8 245.645909,77.8 248.259333,73.8 C250.872756,69.8 252.179468,64.7 252.179468,58.5 L252.179468,57.3 C252.179468,51.2 250.872756,46.1 248.158817,42 C245.545393,37.9 241.625258,35.9 236.498928,35.9 C231.372597,35.9 227.552979,37.9 224.939555,42 C222.326132,46.1 221.01942,51.1 221.01942,57.3 L221.119936,58.5 L221.119936,58.5 Z M286.053455,28 L286.857585,36.8 C288.867911,33.7 291.280302,31.2 294.29579,29.5 C297.311279,27.8 300.728832,26.9 304.447935,26.9 C310.880977,26.9 315.806275,28.8 319.324345,32.5 C322.842415,36.2 324.551191,42 324.551191,49.8 L324.551191,87 L313.4944,87 L313.4944,49.9 C313.4944,44.7 312.489237,41 310.478912,38.8 C308.468586,36.6 305.352581,35.5 301.130898,35.5 C298.115409,35.5 295.401469,36.2 292.989079,37.7 C290.677204,39.2 288.767395,41.2 287.360167,43.8 L287.360167,87 L276.303376,87 L276.303376,28 L286.053455,28 L286.053455,28 Z M377.221724,88 C376.819658,86.2 376.51811,84.6 376.317077,83.2 C376.116044,81.8 376.015528,80.4 375.915012,79 C373.904686,81.9 371.190747,84.3 367.974226,86.2 C364.757705,88.1 361.139118,89.1 357.420016,89.1 C351.188006,89.1 346.363225,87.5 343.146704,84.3 C339.829666,81.1 338.221406,76.7 338.221406,71.1 C338.221406,65.4 340.53328,60.9 345.157029,57.7 C349.780778,54.5 356.113304,52.9 364.054091,52.9 L375.915012,52.9 L375.915012,47.1 C375.915012,43.7 374.809333,41 372.698491,39 C370.487133,37 367.471644,36 363.450993,36 C359.932923,36 357.017951,36.9 354.806593,38.6 C352.595234,40.3 351.489555,42.4 351.489555,44.9 L340.935346,44.9 L340.834829,44.6 C340.633797,40.3 342.744639,36.5 347.066839,32.9 C351.389039,29.3 357.118467,27.6 364.054091,27.6 C370.889198,27.6 376.51811,29.3 380.639277,32.7 C384.860961,36.1 386.971803,40.9 386.971803,47.3 L386.971803,76 C386.971803,78.1 387.072319,80.2 387.273352,82.2 C387.474384,84.2 387.87645,86.1 388.479547,88.1 L377.221724,88 L377.221724,88 Z M359.128793,79.5 C363.048928,79.5 366.566998,78.5 369.783519,76.5 C373.00004,74.5 375.010365,72.2 375.915012,69.6 L375.915012,60 L363.752542,60 C359.430342,60 355.912272,61.1 353.298848,63.3 C350.685425,65.5 349.378713,68.1 349.378713,71 C349.378713,73.6 350.182844,75.7 351.89162,77.2 C353.600397,78.7 355.912272,79.5 359.128793,79.5 L359.128793,79.5 L359.128793,79.5 Z M414.111199,87 L403.054408,87 L403.054408,2 L414.111199,2 L414.111199,87 L414.111199,87 Z M472.41064,88 L461.35385,88 L461.35385,8 L472.41064,8 L472.41064,88 L472.41064,88 Z M500.15314,28 L500.95727,36.8 C502.96759,33.7 505.37998,31.2 508.39547,29.5 C511.41096,27.8 514.82851,26.9 518.54762,26.9 C524.98066,26.9 529.90596,28.8 533.42403,32.5 C536.9421,36.2 538.65087,42 538.65087,49.8 L538.65087,87 L527.59408,87 L527.59408,49.9 C527.59408,44.7 526.58892,41 524.57859,38.8 C522.56827,36.6 519.45226,35.5 515.23058,35.5 C512.21509,35.5 509.50115,36.2 507.08876,37.7 C504.77689,39.2 502.86708,41.2 501.45985,43.8 L501.45985,87 L490.40306,87 L490.40306,28 L500.15314,28 L500.15314,28 Z M588.60747,71.6 C588.60747,69.3 587.70282,67.4 585.89353,65.8 C584.08423,64.3 580.7672,63 575.74138,61.9 C568.60473,60.4 563.27736,58.3 559.75929,55.6 C556.14071,53 554.43193,49.4 554.43193,44.8 C554.43193,40.1 556.44226,36 560.46291,32.7 C564.48356,29.4 569.71041,27.7 576.24396,27.7 C583.07907,27.7 588.50695,29.4 592.42708,32.9 C596.44774,36.4 598.35755,40.6 598.15651,45.6 L598.056,45.9 L588.00437,45.9 C588.00437,43.4 586.89869,41.1 584.78785,39 C582.67701,37 579.76203,36 576.24396,36 C572.42434,36 569.60989,36.8 567.8006,38.5 C565.9913,40.1 565.08666,42.1 565.08666,44.5 C565.08666,46.8 565.89079,48.6 567.49905,49.9 C569.10731,51.2 572.42434,52.4 577.34964,53.4 C584.68733,55 590.21573,57.1 593.83431,59.8 C597.4529,62.5 599.26219,66.1 599.26219,70.7 C599.26219,75.9 597.15135,80 592.92967,83.2 C588.70798,86.4 583.2801,88 576.445,88 C569.00679,88 563.07633,86.1 558.85465,82.4 C554.53245,78.6 552.52212,74.2 552.72315,69.2 L552.82367,68.9 L562.97581,68.9 C563.17685,72.7 564.58407,75.4 567.1975,77.1 C569.81092,78.8 572.92693,79.7 576.445,79.7 C580.26461,79.7 583.17959,78.9 585.29043,77.4 C587.6023,76 588.60747,74.1 588.60747,71.6 L588.60747,71.6 L588.60747,71.6 Z M627.20572,14 L627.20572,28 L638.26251,28 L638.26251,36 L627.20572,36 L627.20572,71.9 C627.20572,74.7 627.80882,76.6 629.01501,77.8 C630.22121,79 631.72895,79.5 633.73928,79.5 C634.34237,79.5 635.04599,79.4 635.85012,79.3 C636.65425,79.2 637.25735,79 637.86044,78.8 L639.36819,86.2 C638.56406,86.9 637.35786,87.4 635.7496,87.8 C634.14134,88.2 632.53308,88.4 630.92482,88.4 C626.40159,88.4 622.88352,87.1 620.16958,84.4 C617.55616,81.8 616.14893,77.6 616.14893,72 L616.14893,36 L607.10246,36 L607.10246,28 L616.14893,28 L616.14893,14 L627.20572,14 L627.20572,14 Z M663.39158,87 L652.33479,87 L652.33479,28 L663.39158,28 L663.39158,87 L663.39158,87 Z M663.39158,13 L652.33479,13 L652.33479,2 L663.39158,2 L663.39158,13 L663.39158,13 Z M694.55163,14 L694.55163,28 L705.60842,28 L705.60842,36 L694.55163,36 L694.55163,71.9 C694.55163,74.7 695.15473,76.6 696.36092,77.8 C697.56712,79 699.07486,79.5 701.08519,79.5 C701.68828,79.5 702.3919,79.4 703.19603,79.3 C704.00016,79.2 704.60326,79 705.20635,78.8 L706.7141,86.2 C705.90997,86.9 704.70377,87.4 703.09551,87.8 C701.48725,88.2 699.87899,88.4 698.27073,88.4 C693.7475,88.4 690.22943,87.1 687.51549,84.4 C684.90207,81.8 683.49484,77.6 683.49484,72 L683.49484,36 L674.44837,36 L674.44837,28 L683.49484,28 L683.49484,14 L694.55163,14 L694.55163,14 Z M757.47482,78.3 C755.56501,81.5 753.25314,83.9 750.33817,85.6 C747.42319,87.3 744.00564,88.2 740.18602,88.2 C733.75298,88.2 728.72716,86.1 725.10858,82 C721.48999,77.9 719.6807,71.5 719.6807,62.8 L719.6807,28 L729.73233,28 L729.73233,63 C729.73233,69.3 730.63697,73.6 732.54678,76 C734.45659,78.4 737.37156,79.6 741.39222,79.6 C745.31235,79.6 748.52887,78.8 751.04178,77.3 C753.55469,75.8 755.4645,73.6 756.77121,70.7 L756.77121,28 L767.828,28 L767.828,87 L758.17844,87 L757.47482,78.3 L757.47482,78.3 Z M798.0834,14 L798.0834,28 L809.14019,28 L809.14019,36 L798.0834,36 L798.0834,71.9 C798.0834,74.7 798.6865,76.6 799.89269,77.8 C801.09889,79 802.60663,79.5 804.61696,79.5 C805.22006,79.5 805.92367,79.4 806.7278,79.3 C807.53193,79.2 808.13503,79 808.73813,78.8 L810.24587,86.2 C809.44174,86.9 808.23554,87.4 806.62728,87.8 C805.01902,88.2 803.41076,88.4 801.8025,88.4 C797.27927,88.4 793.7612,87.1 791.04726,84.4 C788.43384,81.8 787.02661,77.6 787.02661,72 L787.02661,36 L777.98014,36 L777.98014,28 L787.02661,28 L787.02661,14 L798.0834,14 L798.0834,14 Z M846.53225,88.2 C838.1894,88.2 831.55532,85.5 826.63002,80 C821.70473,74.5 819.19182,67.4 819.19182,58.6 L819.19182,56.2 C819.19182,47.8 821.70473,40.8 826.83106,35.2 C831.95739,29.6 837.88785,26.8 844.92399,26.8 C853.06581,26.8 859.09678,29.2 863.31847,34 C867.54015,38.8 869.55048,45.2 869.55048,53.3 L869.55048,60 L830.65068,60 L830.44964,60.3 C830.55016,66 832.0579,70.7 834.87236,74.3 C837.68681,78 841.60695,79.8 846.73328,79.8 C850.45238,79.8 853.6689,79.3 856.48336,78.2 C859.29782,77.2 861.71021,75.7 863.72053,73.9 L867.94222,80.9 C865.83137,83 863.01692,84.7 859.49885,86.1 C855.77975,87.5 851.55806,88.2 846.53225,88.2 L846.53225,88.2 L846.53225,88.2 Z M844.82347,35.7 C841.20488,35.7 838.08888,37.2 835.57597,40.3 C833.06307,43.4 831.45481,47.2 830.85171,51.8 L830.95222,52.1 L858.39317,52.1 L858.39317,50.7 C858.39317,46.5 857.28749,42.9 854.97562,40.1 C852.66374,37.1 849.3467,35.7 844.82347,35.7 L844.82347,35.7 L844.82347,35.7 Z M907.64615,57.3 C907.64615,48.5 910.05854,41.3 914.7828,35.7 C919.50707,30 926.04063,27.2 934.18245,27.2 C942.42478,27.2 948.95834,30 953.68261,35.7 C958.50739,41.4 960.81926,48.6 960.81926,57.4 L960.81926,58.6 C960.81926,67.4 958.40687,74.6 953.68261,80.3 C948.95834,85.9 942.42478,88.7 934.18245,88.7 C925.94011,88.7 919.50707,85.9 914.68229,80.2 C909.85751,74.6 907.54563,67.4 907.54563,58.6 L907.64615,57.3 L907.64615,57.3 Z M918.70294,58.5 C918.70294,64.7 920.00965,69.8 922.62307,73.8 C925.2365,77.8 929.15663,79.8 934.28296,79.8 C939.40929,79.8 943.22891,77.8 945.84234,73.8 C948.45576,69.8 949.76247,64.7 949.76247,58.5 L949.76247,57.3 C949.76247,51.2 948.45576,46.1 945.74182,42 C943.02788,37.9 939.20826,35.9 934.08193,35.9 C928.9556,35.9 925.13598,37.9 922.52256,42 C919.90913,46.1 918.60242,51.1 918.60242,57.3 L918.70294,58.5 L918.70294,58.5 Z M978.00755,87 L978.00755,36 L968.96108,36 L968.96108,28 L978.00755,28 L978.00755,20.5 C978.00755,14.2 979.71632,9.3 983.13388,5.9 C986.55143,2.5 991.27569,0.7 997.30667,0.7 C998.61338,0.7 999.81958,0.8 1001.12629,1 C1002.433,1.2 1003.84023,1.5 1005.44849,1.8 L1004.14178,10 C1003.43817,9.9 1002.63403,9.7 1001.72939,9.6 C1000.82474,9.5 999.81958,9.4 998.7139,9.4 C995.49738,9.4 993.08499,10.3 991.57724,12.2 C989.96898,14.1 989.26537,16.8 989.26537,20.4 L989.26537,28 L1001.32732,28 L1001.32732,36 L989.26537,36 L989.26537,87 L978.00755,87 L978.00755,87 Z M1086.3641,67 L1051.98753,67 L1044.24778,88 L1033.59305,88 L1064.65258,8 L1074.0006,8 L1104.55755,88 L1093.90282,88 L1086.3641,67 L1086.3641,67 Z M1055.90766,58 L1082.645,58 L1069.57788,22 L1069.27633,22 L1055.90766,58 L1055.90766,58 Z M1125.76648,87 L1114.70969,87 L1114.70969,2 L1125.76648,2 L1125.76648,87 L1125.76648,87 Z M1153.91104,87 L1142.85425,87 L1142.85425,2 L1153.91104,2 L1153.91104,87 L1153.91104,87 Z M1195.32375,88.2 C1186.9809,88.2 1180.34682,85.5 1175.42153,80 C1170.49623,74.5 1167.98332,67.4 1167.98332,58.6 L1167.98332,56.2 C1167.98332,47.8 1170.49623,40.8 1175.62256,35.2 C1180.74889,29.6 1186.67935,26.8 1193.71549,26.8 C1201.85731,26.8 1207.88828,29.2 1212.10997,34 C1216.33165,38.8 1218.34198,45.2 1218.34198,53.3 L1218.34198,60 L1179.44218,60 L1179.24114,60.3 C1179.34166,66 1180.8494,70.7 1183.66386,74.3 C1186.47832,78 1190.39845,79.8 1195.52478,79.8 C1199.24388,79.8 1202.46041,79.3 1205.27486,78.2 C1208.08932,77.2 1210.50171,75.7 1212.51203,73.9 L1216.73372,80.9 C1214.62288,83 1211.80842,84.7 1208.29035,86.1 C1204.57125,87.5 1200.34956,88.2 1195.32375,88.2 L1195.32375,88.2 L1195.32375,88.2 Z M1193.61497,35.7 C1189.99639,35.7 1186.88038,37.2 1184.36747,40.3 C1181.85457,43.4 1180.24631,47.2 1179.64321,51.8 L1179.74373,52.1 L1207.18467,52.1 L1207.18467,50.7 C1207.18467,46.5 1206.07899,42.9 1203.76712,40.1 C1201.45524,37.1 1198.1382,35.7 1193.61497,35.7 L1193.61497,35.7 L1193.61497,35.7 Z M1258.04591,37.5 L1252.417,37.2 C1249.50203,37.2 1246.98912,37.9 1245.07931,39.2 C1243.06898,40.5 1241.56124,42.4 1240.45556,44.9 L1240.45556,87 L1229.39877,87 L1229.39877,28 L1239.24936,28 L1240.35504,36.6 C1242.06382,33.5 1244.17466,31.2 1246.68757,29.5 C1249.20048,27.8 1252.11545,26.9 1255.43249,26.9 C1256.23662,26.9 1257.04075,27 1257.74436,27.1 C1258.44797,27.2 1259.15159,27.4 1259.55365,27.5 L1258.04591,37.5 L1258.04591,37.5 Z M1265.48411,58.7 C1265.48411,49.2 1267.59496,41.5 1271.81664,35.7 C1276.03832,29.9 1281.86827,26.9 1289.30647,26.9 C1293.12609,26.9 1296.44313,27.7 1299.3581,29.2 C1302.27307,30.7 1304.68546,32.9 1306.59527,35.7 L1307.90199,28 L1316.74742,28 L1316.74742,87.5 C1316.74742,95.1 1314.43554,100.9 1309.91231,105 C1305.38908,109.1 1298.85552,111.1 1290.31164,111.1 C1287.39666,111.1 1284.28066,110.7 1280.86311,109.9 C1277.44555,109.1 1274.53058,108 1271.91716,106.7 L1274.73161,98.3 C1276.74194,99.4 1279.15433,100.3 1281.86827,101 C1284.58221,101.7 1287.39666,102 1290.21112,102 C1295.639,102 1299.55913,100.8 1301.97153,98.4 C1304.38392,96 1305.69063,92.4 1305.69063,87.5 L1305.69063,80.8 C1303.6803,83.3 1301.36843,85.1 1298.65449,86.4 C1295.94055,87.7 1292.72403,88.3 1289.20596,88.3 C1281.86827,88.3 1276.03832,85.7 1271.81664,80.4 C1267.59496,75.1 1265.48411,68.3 1265.48411,59.8 L1265.48411,58.7 L1265.48411,58.7 Z M1276.54091,60.1 C1276.54091,66.1 1277.84762,70.9 1280.36052,74.5 C1282.87343,78.1 1286.79357,79.9 1292.02041,79.9 C1295.33745,79.9 1298.05139,79.2 1300.26275,77.7 C1302.47411,76.2 1304.2834,74.1 1305.69063,71.4 L1305.69063,44.1 C1304.2834,41.6 1302.47411,39.6 1300.26275,38.1 C1298.05139,36.6 1295.33745,35.9 1292.12093,35.9 C1286.89408,35.9 1283.07446,38.1 1280.46104,42.4 C1277.84762,46.7 1276.54091,52.3 1276.54091,59.1 L1276.54091,60.1 L1276.54091,60.1 Z M1350.52089,65.5 L1352.4307,73 L1352.73225,73 L1367.50814,28 L1379.67061,28 L1354.44102,96.7 C1352.93328,100.7 1350.72192,104.2 1347.90747,107.2 C1345.09301,110.2 1341.27339,111.7 1336.44861,111.7 C1335.54396,111.7 1334.43828,111.6 1333.03106,111.4 C1331.62383,111.2 1330.61867,111 1329.91505,110.8 L1331.02073,102.3 C1330.8197,102.3 1331.4228,102.3 1333.03106,102.4 C1334.5388,102.5 1335.54396,102.6 1335.94603,102.6 C1338.2579,102.6 1340.16771,101.6 1341.67546,99.5 C1343.1832,97.4 1344.3894,95.2 1345.39456,92.7 L1348.00798,86.5 L1325.69337,28 L1337.85584,28 L1350.52089,65.5 L1350.52089,65.5 Z M39.487014,235 C39.084948,233.2 38.7834,231.6 38.582367,230.2 C38.381334,228.8 38.280818,227.4 38.180302,226 C36.169976,228.9 33.456037,231.3 30.239515,233.2 C26.922478,235.1 23.404408,236.1 19.685306,236.1 C13.453296,236.1 8.628515,234.5 5.411994,231.3 C2.094956,228.1 0.486696,223.7 0.486696,218.1 C0.486696,212.4 2.79857,207.9 7.422319,204.7 C12.046068,201.5 18.378594,199.9 26.31938,199.9 L38.180302,199.9 L38.180302,194.1 C38.180302,190.7 37.074623,188 34.963781,186 C32.752423,184 29.736934,183 25.716283,183 C22.198213,183 19.283241,183.9 17.071882,185.6 C14.860524,187.3 13.754845,189.4 13.754845,191.9 L3.200635,191.9 L3.100119,191.6 C2.899087,187.3 5.009929,183.5 9.332129,179.9 C13.654329,176.3 19.383757,174.6 26.31938,174.6 C33.154488,174.6 38.7834,176.3 42.904567,179.7 C47.126251,183.1 49.237093,187.9 49.237093,194.3 L49.237093,223 C49.237093,225.1 49.337609,227.2 49.538642,229.2 C49.739674,231.2 50.141739,233.1 50.744837,235.1 L39.487014,235.1 L39.487014,235 L39.487014,235 Z M21.394083,226.5 C25.314218,226.5 28.832288,225.5 32.048809,223.5 C35.26533,221.5 37.275655,219.2 38.180302,216.6 L38.180302,207 L26.017832,207 C21.695631,207 18.177562,208.1 15.564138,210.3 C12.950715,212.5 11.644003,215.1 11.644003,218 C11.644003,220.6 12.448133,222.7 14.15691,224.2 C15.865687,225.7 18.177562,226.5 21.394083,226.5 L21.394083,226.5 L21.394083,226.5 Z M73.964098,175 L74.768229,183.8 C76.778554,180.7 79.190945,178.2 82.206434,176.5 C85.221922,174.8 88.639476,173.9 92.358578,173.9 C98.79162,173.9 103.716918,175.8 107.234988,179.5 C110.753058,183.2 112.461835,189 112.461835,196.8 L112.461835,234 L101.405044,234 L101.405044,196.9 C101.405044,191.7 100.399881,188 98.389555,185.8 C96.37923,183.6 93.263225,182.5 89.041541,182.5 C86.026052,182.5 83.312113,183.2 80.899722,184.7 C78.587847,186.2 76.678038,188.2 75.27081,190.8 L75.27081,234 L64.214019,234 L64.214019,175 L73.964098,175 L73.964098,175 Z M126.634631,205.5 C126.634631,196 128.644956,188.3 132.766124,182.5 C136.786775,176.7 142.516203,173.7 149.853892,173.7 C153.271446,173.7 156.38745,174.3 159.10139,175.6 C161.81533,176.9 164.026688,178.7 165.936497,181.2 L165.936497,149 L176.993288,149 L176.993288,234 L167.946823,234 L166.740627,226.7 C164.830818,229.5 162.418427,231.6 159.603971,233 C156.789515,234.4 153.572994,235.1 149.853892,235.1 C142.61672,235.1 136.987808,232.5 132.967156,227.3 C128.845989,222.1 126.835663,215.2 126.835663,206.7 L126.835663,205.5 L126.634631,205.5 L126.634631,205.5 Z M137.691422,207.1 C137.691422,213 138.897617,217.7 141.310008,221.2 C143.722399,224.7 147.441501,226.5 152.567832,226.5 C155.784353,226.5 158.397776,225.8 160.609134,224.4 C162.719976,223 164.529269,221 165.936497,218.4 L165.936497,191.3 C164.529269,188.9 162.820492,187 160.609134,185.6 C158.397776,184.2 155.784353,183.5 152.768864,183.5 C147.642534,183.5 143.923431,185.6 141.410524,189.8 C138.998133,194 137.791938,199.4 137.791938,206.1 L137.791938,207.1 L137.691422,207.1 L137.691422,207.1 Z M234.187053,235 L223.130262,235 L223.130262,155 L234.187053,155 L234.187053,235 L234.187053,235 Z M261.929547,175 L262.733678,183.8 C264.744003,180.7 267.156394,178.2 270.171882,176.5 C273.187371,174.8 276.604925,173.9 280.324027,173.9 C286.757069,173.9 291.682367,175.8 295.200437,179.5 C298.718507,183.2 300.427284,189 300.427284,196.8 L300.427284,234 L289.370492,234 L289.370492,196.9 C289.370492,191.7 288.36533,188 286.355004,185.8 C284.344678,183.6 281.228674,182.5 277.00699,182.5 C273.991501,182.5 271.277562,183.2 268.865171,184.7 C266.553296,186.2 264.643487,188.2 263.236259,190.8 L263.236259,234 L252.179468,234 L252.179468,175 L261.929547,175 L261.929547,175 Z M320.631056,234 L320.631056,183 L311.584591,183 L311.584591,175 L320.631056,175 L320.631056,167.5 C320.631056,161.2 322.339833,156.3 325.757387,152.9 C329.17494,149.5 333.899206,147.7 339.930183,147.7 C341.236894,147.7 342.44309,147.8 343.749801,148 C345.056513,148.2 346.463741,148.5 348.072002,148.8 L346.76529,157 C346.061676,156.9 345.257546,156.7 344.352899,156.6 C343.448253,156.5 342.44309,156.4 341.337411,156.4 C338.12089,156.4 335.708499,157.3 334.200755,159.2 C332.592494,161.1 331.88888,163.8 331.88888,167.4 L331.88888,174.9 L343.950834,174.9 L343.950834,182.9 L331.88888,182.9 L331.88888,233.9 L320.631056,234 L320.631056,234 Z M380.136696,235.2 C371.793844,235.2 365.15977,232.5 360.234472,227 C355.309174,221.5 352.796267,214.4 352.796267,205.6 L352.796267,203.2 C352.796267,194.8 355.309174,187.8 360.435504,182.2 C365.561835,176.6 371.492295,173.8 378.528435,173.8 C386.670254,173.8 392.701231,176.2 396.922915,181 C401.044083,185.8 403.154925,192.2 403.154925,200.3 L403.154925,207 L364.255123,207 L364.054091,207.3 C364.154607,213 365.662351,217.7 368.476807,221.3 C371.291263,225 375.211398,226.8 380.337728,226.8 C384.056831,226.8 387.273352,226.3 390.087808,225.2 C392.902264,224.2 395.314654,222.7 397.32498,220.9 L401.546664,227.9 C399.435822,230 396.621366,231.7 393.103296,233.1 C389.585226,234.5 385.16251,235.2 380.136696,235.2 L380.136696,235.2 L380.136696,235.2 Z M378.427919,182.7 C374.809333,182.7 371.693328,184.2 369.180421,187.3 C366.566998,190.3 365.059253,194.2 364.456156,198.8 L364.556672,199.1 L391.997617,199.1 L391.997617,197.7 C391.997617,193.5 390.891938,189.9 388.580064,187.1 C386.268189,184.3 382.951152,182.7 378.427919,182.7 L378.427919,182.7 L378.427919,182.7 Z M439.24027,227.4 C442.85886,227.4 446.07538,226.3 448.88983,224.1 C451.70429,221.9 453.011,219.2 453.011,216 L462.8616,216 L462.96211,216.3 C463.16315,221.4 460.85127,225.9 456.02649,229.8 C451.20171,233.7 445.5728,235.7 439.13975,235.7 C430.39484,235.7 423.66025,232.9 418.935981,227.3 C414.312232,221.7 412.000357,214.7 412.000357,206.2 L412.000357,204 C412.000357,195.6 414.312232,188.6 419.0365,183 C423.66025,177.4 430.39484,174.6 439.13975,174.6 C446.17589,174.6 452.00584,176.6 456.52907,180.7 C461.0523,184.8 463.16315,189.8 463.06263,195.7 L462.96211,196 L453.011,196 C453.011,192.4 451.70429,189.3 449.09087,186.8 C446.47744,184.3 443.16041,183 439.24027,183 C433.51084,183 429.38967,185 426.87677,189.1 C424.36386,193.2 423.15766,198.1 423.15766,204 L423.15766,206.3 C423.15766,212.3 424.36386,217.4 426.87677,221.4 C429.28916,225.4 433.41033,227.4 439.24027,227.4 L439.24027,227.4 L439.24027,227.4 Z M488.49325,161 L488.49325,175 L499.55004,175 L499.55004,183 L488.49325,183 L488.49325,218.9 C488.49325,221.7 489.09635,223.6 490.30254,224.8 C491.50874,226 493.01648,226.5 495.02681,226.5 C495.6299,226.5 496.33352,226.4 497.13765,226.3 C497.94178,226.2 498.54488,226 499.14797,225.8 L500.65572,233.2 C499.85159,233.9 498.64539,234.4 497.03713,234.8 C495.42887,235.2 493.82061,235.4 492.21235,235.4 C487.68912,235.4 484.17105,234.1 481.45711,231.4 C478.84369,228.8 477.43646,224.6 477.43646,219 L477.43646,183 L468.38999,183 L468.38999,175 L477.43646,175 L477.43646,161 L488.49325,161 L488.49325,161 Z M525.68427,234 L514.62748,234 L514.62748,175 L525.68427,175 L525.68427,234 L525.68427,234 Z M525.68427,160 L514.62748,160 L514.62748,149 L525.68427,149 L525.68427,160 L525.68427,160 Z M539.75655,204.3 C539.75655,195.5 542.16894,188.3 546.89321,182.7 C551.61747,177 558.15103,174.2 566.29285,174.2 C574.53519,174.2 581.06875,177 585.79301,182.7 C590.61779,188.4 592.92967,195.6 592.92967,204.4 L592.92967,205.6 C592.92967,214.4 590.51728,221.6 585.79301,227.3 C581.06875,232.9 574.53519,235.7 566.29285,235.7 C558.05052,235.7 551.61747,232.9 546.79269,227.2 C541.96791,221.6 539.65604,214.4 539.65604,205.6 L539.75655,204.3 L539.75655,204.3 Z M550.81334,205.5 C550.81334,211.7 552.12006,216.8 554.73348,220.8 C557.3469,224.8 561.26704,226.8 566.39337,226.8 C571.5197,226.8 575.33932,224.8 577.95274,220.8 C580.56616,216.8 581.87288,211.7 581.87288,205.5 L581.87288,204.3 C581.87288,198.2 580.56616,193.1 577.85222,189 C575.2388,184.9 571.31867,182.9 566.19234,182.9 C561.066,182.9 557.24639,184.9 554.63296,189 C552.01954,193.1 550.71283,198.1 550.71283,204.3 L550.81334,205.5 L550.81334,205.5 Z M643.89142,225.3 C641.98161,228.5 639.66974,230.9 636.75477,232.6 C633.83979,234.3 630.42224,235.2 626.60262,235.2 C620.16958,235.2 615.14376,233.1 611.52518,229 C607.90659,224.9 606.0973,218.5 606.0973,209.8 L606.0973,175 L616.14893,175 L616.14893,210 C616.14893,216.3 617.05357,220.6 618.96338,223 C620.87319,225.4 623.78817,226.6 627.80882,226.6 C631.72895,226.6 634.94547,225.8 637.45838,224.3 C639.97129,222.8 641.8811,220.6 643.18781,217.7 L643.18781,175 L654.2446,175 L654.2446,234 L644.59504,234 L643.89142,225.3 L643.89142,225.3 Z M704.20119,218.6 C704.20119,216.3 703.29654,214.4 701.48725,212.8 C699.67796,211.3 696.36092,210 691.33511,208.9 C684.19845,207.4 678.87109,205.3 675.35302,202.6 C671.73443,200 670.02566,196.4 670.02566,191.8 C670.02566,187.1 672.03598,183 676.05663,179.7 C680.07728,176.4 685.30413,174.7 691.83769,174.7 C698.6728,174.7 704.10068,176.4 708.02081,179.9 C712.04146,183.4 713.95127,187.6 713.75024,192.6 L713.64972,192.9 L703.49758,192.9 C703.49758,190.4 702.3919,188.1 700.28106,186 C698.17021,184 695.25524,183 691.73717,183 C687.91755,183 685.1031,183.8 683.2938,185.5 C681.48451,187.1 680.57986,189.1 680.57986,191.5 C680.57986,193.8 681.384,195.6 682.99226,196.9 C684.60052,198.2 687.91755,199.4 692.84285,200.4 C700.18054,202 705.70894,204.1 709.32752,206.8 C712.94611,209.5 714.7554,213.1 714.7554,217.7 C714.7554,222.9 712.64456,227 708.42288,230.2 C704.20119,233.4 698.77331,235 691.9382,235 C684.5,235 678.56954,233.1 674.34786,229.4 C670.02566,225.6 668.01533,221.2 668.21636,216.2 L668.31688,215.9 L678.46902,215.9 C678.67006,219.7 680.07728,222.4 682.69071,224.1 C685.30413,225.8 688.42014,226.7 691.9382,226.7 C695.75782,226.7 698.6728,225.9 700.78364,224.4 C703.09551,223 704.20119,221.1 704.20119,218.6 L704.20119,218.6 L704.20119,218.6 Z M758.88205,235 L758.88205,155 L783.40802,155 C793.86172,155 802.30508,158.2 808.63761,164.6 C814.97014,171 818.18666,179.3 818.18666,189.5 L818.18666,200.4 C818.18666,210.6 814.97014,218.9 808.63761,225.3 C802.30508,231.7 793.86172,234.9 783.40802,234.9 L758.88205,234.9 L758.88205,235 Z M769.93884,163 L769.93884,226 L783.50854,226 C790.84623,226 796.57566,223.6 800.79734,218.7 C805.01902,213.8 807.12986,207.6 807.12986,200 L807.12986,189 C807.12986,181.5 805.01902,175.3 800.79734,170.4 C796.57566,165.5 790.84623,163.1 783.50854,163.1 L769.93884,163.1 L769.93884,163 Z M842.31056,234 L831.25377,234 L831.25377,175 L842.31056,175 L842.31056,234 L842.31056,234 Z M842.31056,160 L831.25377,160 L831.25377,149 L842.31056,149 L842.31056,160 L842.31056,160 Z M893.57387,218.6 C893.57387,216.3 892.66922,214.4 890.85993,212.8 C889.05064,211.3 885.7336,210 880.70778,208.9 C873.57113,207.4 868.24376,205.3 864.72569,202.6 C861.10711,200 859.39833,196.4 859.39833,191.8 C859.39833,187.1 861.40866,183 865.42931,179.7 C869.44996,176.4 874.67681,174.7 881.21037,174.7 C888.04547,174.7 893.47335,176.4 897.39349,179.9 C901.41414,183.4 903.32395,187.6 903.12292,192.6 L903.0224,192.9 L892.87025,192.9 C892.87025,190.4 891.76458,188.1 889.65373,186 C887.54289,184 884.62792,183 881.10985,183 C877.29023,183 874.47577,183.8 872.66648,185.5 C870.85719,187.1 869.95254,189.1 869.95254,191.5 C869.95254,193.8 870.75667,195.6 872.36493,196.9 C873.97319,198.2 877.29023,199.4 882.21553,200.4 C889.55322,202 895.08161,204.1 898.7002,206.8 C902.31878,209.5 904.12808,213.1 904.12808,217.7 C904.12808,222.9 902.01724,227 897.79555,230.2 C893.57387,233.4 888.14599,235 881.31088,235 C873.87268,235 867.94222,233.1 863.72053,229.4 C859.39833,225.6 857.38801,221.2 857.58904,216.2 L857.68956,215.9 L867.8417,215.9 C868.04273,219.7 869.44996,222.4 872.06338,224.1 C874.67681,225.8 877.79281,226.7 881.31088,226.7 C885.1305,226.7 888.04547,225.9 890.15631,224.4 C892.46819,223 893.57387,221.1 893.57387,218.6 L893.57387,218.6 L893.57387,218.6 Z M943.02788,235.2 C934.68503,235.2 928.05095,232.5 923.12566,227 C918.20036,221.5 915.68745,214.4 915.68745,205.6 L915.68745,203.2 C915.68745,194.8 918.20036,187.8 923.32669,182.2 C928.45302,176.6 934.38348,173.8 941.41962,173.8 C949.56144,173.8 955.59241,176.2 959.8141,181 C964.03578,185.8 966.04611,192.2 966.04611,200.3 L966.04611,207 L927.14631,207 L926.94527,207.3 C927.04579,213 928.55353,217.7 931.36799,221.3 C934.18245,225 938.10258,226.8 943.22891,226.8 C946.94801,226.8 950.16454,226.3 952.97899,225.2 C955.79345,224.2 958.20584,222.7 960.21616,220.9 L964.43785,227.9 C962.32701,230 959.51255,231.7 955.99448,233.1 C952.27538,234.5 948.05369,235.2 943.02788,235.2 L943.02788,235.2 L943.02788,235.2 Z M941.3191,182.7 C937.70052,182.7 934.58451,184.2 932.0716,187.3 C929.5587,190.4 927.95044,194.2 927.34734,198.8 L927.44786,199.1 L954.8888,199.1 L954.8888,197.7 C954.8888,193.5 953.78312,189.9 951.47125,187.1 C949.15937,184.1 945.84234,182.7 941.3191,182.7 L941.3191,182.7 L941.3191,182.7 Z M1014.49496,235 C1014.09289,233.2 1013.79134,231.6 1013.59031,230.2 C1013.38928,228.8 1013.28876,227.4 1013.18824,226 C1011.17792,228.9 1008.46398,231.3 1005.24746,233.2 C1001.93042,235.1 998.41235,236.1 994.69325,236.1 C988.46124,236.1 983.63646,234.5 980.41994,231.3 C977.20342,228.1 975.49464,223.7 975.49464,218.1 C975.49464,212.4 977.80651,207.9 982.43026,204.7 C987.05401,201.5 993.38654,199.9 1001.32732,199.9 L1013.08773,199.9 L1013.08773,194.1 C1013.08773,190.7 1011.98205,188 1009.87121,186 C1007.65985,184 1004.64436,183 1000.62371,183 C997.10564,183 994.19067,183.9 991.97931,185.6 C989.76795,187.3 988.66227,189.4 988.66227,191.9 L978.10806,191.9 L978.00755,191.6 C977.80651,187.3 979.91736,183.5 984.23956,179.9 C988.66227,176.4 994.29118,174.6 1001.22681,174.6 C1008.06191,174.6 1013.69083,176.3 1017.81199,179.7 C1022.03368,183.1 1024.14452,187.9 1024.14452,194.3 L1024.14452,223 C1024.14452,225.1 1024.24504,227.2 1024.44607,229.2 C1024.6471,231.2 1025.04917,233.1 1025.65226,235.1 L1014.49496,235.1 L1014.49496,235 Z M996.40203,226.5 C1000.32216,226.5 1003.84023,225.5 1007.05675,223.5 C1010.17276,221.5 1012.2836,219.2 1013.18824,216.6 L1013.18824,207 L1001.02577,207 C996.70357,207 993.1855,208.1 990.57208,210.3 C987.95866,212.5 986.65195,215.1 986.65195,218 C986.65195,220.6 987.45608,222.7 989.16485,224.2 C990.87363,225.7 993.1855,226.5 996.40203,226.5 L996.40203,226.5 L996.40203,226.5 Z M1073.79956,218.6 C1073.79956,216.3 1072.89492,214.4 1071.08562,212.8 C1069.27633,211.3 1065.95929,210 1060.93348,208.9 C1053.79682,207.4 1048.46946,205.3 1044.95139,202.6 C1041.3328,200 1039.62403,196.4 1039.62403,191.8 C1039.62403,187.1 1041.63435,183 1045.655,179.7 C1049.67566,176.4 1054.9025,174.7 1061.43606,174.7 C1068.27117,174.7 1073.69905,176.4 1077.61918,179.9 C1081.63983,183.4 1083.54964,187.6 1083.34861,192.6 L1083.24809,192.9 L1073.09595,192.9 C1073.09595,190.4 1071.99027,188.1 1069.87943,186 C1067.76859,184 1064.85361,183 1061.33554,183 C1057.51593,183 1054.70147,183.8 1052.89218,185.5 C1051.08288,187.1 1050.17824,189.1 1050.17824,191.5 C1050.17824,193.8 1050.98237,195.6 1052.59063,196.9 C1054.19889,198.2 1057.51593,199.4 1062.44122,200.4 C1069.77891,202 1075.30731,204.1 1078.92589,206.8 C1082.54448,209.5 1084.35377,213.1 1084.35377,217.7 C1084.35377,222.9 1082.24293,227 1078.02125,230.2 C1073.79956,233.4 1068.37168,235 1061.53658,235 C1054.09837,235 1048.16791,233.1 1043.94623,229.4 C1039.62403,225.6 1037.6137,221.2 1037.81473,216.2 L1037.91525,215.9 L1048.06739,215.9 C1048.26843,219.7 1049.67566,222.4 1052.28908,224.1 C1054.9025,225.8 1058.01851,226.7 1061.53658,226.7 C1065.3562,226.7 1068.27117,225.9 1070.38201,224.4 C1072.7944,223 1073.79956,221.1 1073.79956,218.6 L1073.79956,218.6 L1073.79956,218.6 Z M1122.95203,235.2 C1114.60917,235.2 1107.9751,232.5 1103.0498,227 C1098.1245,221.5 1095.6116,214.4 1095.6116,205.6 L1095.6116,203.2 C1095.6116,194.8 1098.1245,187.8 1103.25083,182.2 C1108.37716,176.6 1114.30763,173.8 1121.34376,173.8 C1129.48558,173.8 1135.51656,176.2 1139.73824,181 C1143.95993,185.8 1145.97025,192.2 1145.97025,200.3 L1145.97025,207 L1107.07045,207 L1106.86942,207.3 C1106.96994,213 1108.47768,217.7 1111.29214,221.3 C1114.10659,225 1118.02673,226.8 1123.15306,226.8 C1126.87216,226.8 1130.08868,226.3 1132.90314,225.2 C1135.71759,224.2 1138.12998,222.7 1140.14031,220.9 L1144.36199,227.9 C1142.25115,230 1139.4367,231.7 1135.91863,233.1 C1132.19952,234.5 1127.97784,235.2 1122.95203,235.2 L1122.95203,235.2 L1122.95203,235.2 Z M1121.24325,182.7 C1117.62466,182.7 1114.50866,184.2 1111.99575,187.3 C1109.48284,190.4 1107.87458,194.2 1107.27149,198.8 L1107.372,199.1 L1134.81295,199.1 L1134.81295,197.7 C1134.81295,193.5 1133.70727,189.9 1131.39539,187.1 C1129.08352,184.1 1125.76648,182.7 1121.24325,182.7 L1121.24325,182.7 L1121.24325,182.7 Z M1192.20774,218.6 C1192.20774,216.3 1191.3031,214.4 1189.4938,212.8 C1187.68451,211.3 1184.36747,210 1179.34166,208.9 C1172.205,207.4 1166.87764,205.3 1163.35957,202.6 C1159.74098,200 1158.03221,196.4 1158.03221,191.8 C1158.03221,187.1 1160.04253,183 1164.06319,179.7 C1168.08384,176.4 1173.31068,174.7 1179.84424,174.7 C1186.67935,174.7 1192.10723,176.4 1196.02736,179.9 C1200.04801,183.4 1201.95782,187.6 1201.75679,192.6 L1201.65627,192.9 L1191.50413,192.9 C1191.50413,190.4 1190.39845,188.1 1188.28761,186 C1186.17677,184 1183.2618,183 1179.74373,183 C1175.92411,183 1173.10965,183.8 1171.30036,185.5 C1169.49106,187.1 1168.58642,189.1 1168.58642,191.5 C1168.58642,193.8 1169.39055,195.6 1170.99881,196.9 C1172.60707,198.2 1175.92411,199.4 1180.8494,200.4 C1188.18709,202 1193.71549,204.1 1197.33407,206.8 C1200.95266,209.5 1202.76195,213.1 1202.76195,217.7 C1202.76195,222.9 1200.65111,227 1196.42943,230.2 C1192.20774,233.4 1186.77986,235 1179.94476,235 C1172.50655,235 1166.57609,233.1 1162.35441,229.4 C1158.03221,225.6 1156.02188,221.2 1156.22292,216.2 L1156.32343,215.9 L1166.47558,215.9 C1166.67661,219.7 1168.08384,222.4 1170.69726,224.1 C1173.31068,225.8 1176.42669,226.7 1179.94476,226.7 C1183.76438,226.7 1186.67935,225.9 1188.79019,224.4 C1191.20258,223 1192.20774,221.1 1192.20774,218.6 L1192.20774,218.6 L1192.20774,218.6 Z" id="path-3"></path>
                                        </g>
                                        <g id="path-3-link">
                                            <path d="M65.319698,88 L55.770651,88 L16.468785,26.1 L16.167236,26.2 L16.167236,88 L5.110445,88 L5.110445,8 L14.659492,8 L53.961358,69.8 L54.262907,69.7 L54.262907,8 L65.319698,8 L65.319698,88 L65.319698,88 Z M119.90004,88 C119.497975,86.2 119.196426,84.6 118.995393,83.2 C118.794361,81.8 118.693844,80.4 118.593328,79 C116.583002,81.9 113.869063,84.3 110.652542,86.2 C107.436021,88.1 103.817434,89.1 100.098332,89.1 C93.866322,89.1 89.041541,87.5 85.82502,84.3 C82.507983,81.1 80.899722,76.7 80.899722,71.1 C80.899722,65.4 83.211597,60.9 87.835346,57.7 C92.459095,54.5 98.79162,52.9 106.732407,52.9 L118.593328,52.9 L118.593328,47.1 C118.593328,43.7 117.487649,41 115.376807,39 C113.165449,37 110.14996,36 106.129309,36 C102.611239,36 99.696267,36.9 97.484909,38.6 C95.27355,40.3 94.167871,42.4 94.167871,44.9 L83.613662,44.9 L83.513145,44.6 C83.312113,40.3 85.422955,36.5 89.745155,32.9 C94.067355,29.3 99.796783,27.6 106.732407,27.6 C113.567514,27.6 119.196426,29.3 123.317593,32.7 C127.539277,36.1 129.650119,40.9 129.650119,47.3 L129.650119,76 C129.650119,78.1 129.750635,80.2 129.951668,82.2 C130.152701,84.2 130.554766,86.1 131.157863,88.1 L119.90004,88 L119.90004,88 Z M101.807109,79.5 C105.727244,79.5 109.245314,78.5 112.461835,76.5 C115.678356,74.5 117.688681,72.2 118.593328,69.6 L118.593328,60 L106.430858,60 C102.108658,60 98.590588,61.1 95.977164,63.3 C93.363741,65.5 92.057029,68.1 92.057029,71 C92.057029,73.6 92.86116,75.7 94.569936,77.2 C96.278713,78.7 98.590588,79.5 101.807109,79.5 L101.807109,79.5 L101.807109,79.5 Z M159.805004,14 L159.805004,28 L170.861795,28 L170.861795,36 L159.805004,36 L159.805004,71.9 C159.805004,74.7 160.408102,76.6 161.614297,77.8 C162.820492,78.9 164.328237,79.5 166.338562,79.5 C166.94166,79.5 167.645274,79.4 168.449404,79.3 C169.253535,79.2 169.856632,79 170.45973,78.8 L171.967474,86.2 C171.163344,86.9 169.957149,87.4 168.348888,87.8 C166.740627,88.2 165.132367,88.4 163.524106,88.4 C159.000874,88.4 155.482804,87.1 152.768864,84.4 C150.054925,81.7 148.748213,77.6 148.748213,72 L148.748213,36 L138.696585,36 L138.696585,28 L148.748213,28 L148.748213,14 L159.805004,14 L159.805004,14 Z M195.990866,87 L184.934075,87 L184.934075,28 L195.990866,28 L195.990866,87 L195.990866,87 Z M195.990866,13 L184.934075,13 L184.934075,2 L195.990866,2 L195.990866,13 L195.990866,13 Z M210.063145,57.3 C210.063145,48.5 212.475536,41.3 217.199801,35.7 C221.924067,30 228.457625,27.2 236.599444,27.2 C244.841779,27.2 251.375338,30 256.099603,35.7 C260.924384,41.4 263.236259,48.6 263.236259,57.4 L263.236259,58.6 C263.236259,67.4 260.823868,74.6 256.099603,80.3 C251.375338,85.9 244.841779,88.7 236.599444,88.7 C228.357109,88.7 221.924067,85.9 217.099285,80.2 C212.274504,74.6 209.962629,67.4 209.962629,58.6 L209.962629,57.3 L210.063145,57.3 Z M221.119936,58.5 C221.119936,64.7 222.426648,69.8 225.040071,73.8 C227.653495,77.8 231.57363,79.8 236.69996,79.8 C241.826291,79.8 245.645909,77.8 248.259333,73.8 C250.872756,69.8 252.179468,64.7 252.179468,58.5 L252.179468,57.3 C252.179468,51.2 250.872756,46.1 248.158817,42 C245.545393,37.9 241.625258,35.9 236.498928,35.9 C231.372597,35.9 227.552979,37.9 224.939555,42 C222.326132,46.1 221.01942,51.1 221.01942,57.3 L221.119936,58.5 L221.119936,58.5 Z M286.053455,28 L286.857585,36.8 C288.867911,33.7 291.280302,31.2 294.29579,29.5 C297.311279,27.8 300.728832,26.9 304.447935,26.9 C310.880977,26.9 315.806275,28.8 319.324345,32.5 C322.842415,36.2 324.551191,42 324.551191,49.8 L324.551191,87 L313.4944,87 L313.4944,49.9 C313.4944,44.7 312.489237,41 310.478912,38.8 C308.468586,36.6 305.352581,35.5 301.130898,35.5 C298.115409,35.5 295.401469,36.2 292.989079,37.7 C290.677204,39.2 288.767395,41.2 287.360167,43.8 L287.360167,87 L276.303376,87 L276.303376,28 L286.053455,28 L286.053455,28 Z M377.221724,88 C376.819658,86.2 376.51811,84.6 376.317077,83.2 C376.116044,81.8 376.015528,80.4 375.915012,79 C373.904686,81.9 371.190747,84.3 367.974226,86.2 C364.757705,88.1 361.139118,89.1 357.420016,89.1 C351.188006,89.1 346.363225,87.5 343.146704,84.3 C339.829666,81.1 338.221406,76.7 338.221406,71.1 C338.221406,65.4 340.53328,60.9 345.157029,57.7 C349.780778,54.5 356.113304,52.9 364.054091,52.9 L375.915012,52.9 L375.915012,47.1 C375.915012,43.7 374.809333,41 372.698491,39 C370.487133,37 367.471644,36 363.450993,36 C359.932923,36 357.017951,36.9 354.806593,38.6 C352.595234,40.3 351.489555,42.4 351.489555,44.9 L340.935346,44.9 L340.834829,44.6 C340.633797,40.3 342.744639,36.5 347.066839,32.9 C351.389039,29.3 357.118467,27.6 364.054091,27.6 C370.889198,27.6 376.51811,29.3 380.639277,32.7 C384.860961,36.1 386.971803,40.9 386.971803,47.3 L386.971803,76 C386.971803,78.1 387.072319,80.2 387.273352,82.2 C387.474384,84.2 387.87645,86.1 388.479547,88.1 L377.221724,88 L377.221724,88 Z M359.128793,79.5 C363.048928,79.5 366.566998,78.5 369.783519,76.5 C373.00004,74.5 375.010365,72.2 375.915012,69.6 L375.915012,60 L363.752542,60 C359.430342,60 355.912272,61.1 353.298848,63.3 C350.685425,65.5 349.378713,68.1 349.378713,71 C349.378713,73.6 350.182844,75.7 351.89162,77.2 C353.600397,78.7 355.912272,79.5 359.128793,79.5 L359.128793,79.5 L359.128793,79.5 Z M414.111199,87 L403.054408,87 L403.054408,2 L414.111199,2 L414.111199,87 L414.111199,87 Z M472.41064,88 L461.35385,88 L461.35385,8 L472.41064,8 L472.41064,88 L472.41064,88 Z M500.15314,28 L500.95727,36.8 C502.96759,33.7 505.37998,31.2 508.39547,29.5 C511.41096,27.8 514.82851,26.9 518.54762,26.9 C524.98066,26.9 529.90596,28.8 533.42403,32.5 C536.9421,36.2 538.65087,42 538.65087,49.8 L538.65087,87 L527.59408,87 L527.59408,49.9 C527.59408,44.7 526.58892,41 524.57859,38.8 C522.56827,36.6 519.45226,35.5 515.23058,35.5 C512.21509,35.5 509.50115,36.2 507.08876,37.7 C504.77689,39.2 502.86708,41.2 501.45985,43.8 L501.45985,87 L490.40306,87 L490.40306,28 L500.15314,28 L500.15314,28 Z M588.60747,71.6 C588.60747,69.3 587.70282,67.4 585.89353,65.8 C584.08423,64.3 580.7672,63 575.74138,61.9 C568.60473,60.4 563.27736,58.3 559.75929,55.6 C556.14071,53 554.43193,49.4 554.43193,44.8 C554.43193,40.1 556.44226,36 560.46291,32.7 C564.48356,29.4 569.71041,27.7 576.24396,27.7 C583.07907,27.7 588.50695,29.4 592.42708,32.9 C596.44774,36.4 598.35755,40.6 598.15651,45.6 L598.056,45.9 L588.00437,45.9 C588.00437,43.4 586.89869,41.1 584.78785,39 C582.67701,37 579.76203,36 576.24396,36 C572.42434,36 569.60989,36.8 567.8006,38.5 C565.9913,40.1 565.08666,42.1 565.08666,44.5 C565.08666,46.8 565.89079,48.6 567.49905,49.9 C569.10731,51.2 572.42434,52.4 577.34964,53.4 C584.68733,55 590.21573,57.1 593.83431,59.8 C597.4529,62.5 599.26219,66.1 599.26219,70.7 C599.26219,75.9 597.15135,80 592.92967,83.2 C588.70798,86.4 583.2801,88 576.445,88 C569.00679,88 563.07633,86.1 558.85465,82.4 C554.53245,78.6 552.52212,74.2 552.72315,69.2 L552.82367,68.9 L562.97581,68.9 C563.17685,72.7 564.58407,75.4 567.1975,77.1 C569.81092,78.8 572.92693,79.7 576.445,79.7 C580.26461,79.7 583.17959,78.9 585.29043,77.4 C587.6023,76 588.60747,74.1 588.60747,71.6 L588.60747,71.6 L588.60747,71.6 Z M627.20572,14 L627.20572,28 L638.26251,28 L638.26251,36 L627.20572,36 L627.20572,71.9 C627.20572,74.7 627.80882,76.6 629.01501,77.8 C630.22121,79 631.72895,79.5 633.73928,79.5 C634.34237,79.5 635.04599,79.4 635.85012,79.3 C636.65425,79.2 637.25735,79 637.86044,78.8 L639.36819,86.2 C638.56406,86.9 637.35786,87.4 635.7496,87.8 C634.14134,88.2 632.53308,88.4 630.92482,88.4 C626.40159,88.4 622.88352,87.1 620.16958,84.4 C617.55616,81.8 616.14893,77.6 616.14893,72 L616.14893,36 L607.10246,36 L607.10246,28 L616.14893,28 L616.14893,14 L627.20572,14 L627.20572,14 Z M663.39158,87 L652.33479,87 L652.33479,28 L663.39158,28 L663.39158,87 L663.39158,87 Z M663.39158,13 L652.33479,13 L652.33479,2 L663.39158,2 L663.39158,13 L663.39158,13 Z M694.55163,14 L694.55163,28 L705.60842,28 L705.60842,36 L694.55163,36 L694.55163,71.9 C694.55163,74.7 695.15473,76.6 696.36092,77.8 C697.56712,79 699.07486,79.5 701.08519,79.5 C701.68828,79.5 702.3919,79.4 703.19603,79.3 C704.00016,79.2 704.60326,79 705.20635,78.8 L706.7141,86.2 C705.90997,86.9 704.70377,87.4 703.09551,87.8 C701.48725,88.2 699.87899,88.4 698.27073,88.4 C693.7475,88.4 690.22943,87.1 687.51549,84.4 C684.90207,81.8 683.49484,77.6 683.49484,72 L683.49484,36 L674.44837,36 L674.44837,28 L683.49484,28 L683.49484,14 L694.55163,14 L694.55163,14 Z M757.47482,78.3 C755.56501,81.5 753.25314,83.9 750.33817,85.6 C747.42319,87.3 744.00564,88.2 740.18602,88.2 C733.75298,88.2 728.72716,86.1 725.10858,82 C721.48999,77.9 719.6807,71.5 719.6807,62.8 L719.6807,28 L729.73233,28 L729.73233,63 C729.73233,69.3 730.63697,73.6 732.54678,76 C734.45659,78.4 737.37156,79.6 741.39222,79.6 C745.31235,79.6 748.52887,78.8 751.04178,77.3 C753.55469,75.8 755.4645,73.6 756.77121,70.7 L756.77121,28 L767.828,28 L767.828,87 L758.17844,87 L757.47482,78.3 L757.47482,78.3 Z M798.0834,14 L798.0834,28 L809.14019,28 L809.14019,36 L798.0834,36 L798.0834,71.9 C798.0834,74.7 798.6865,76.6 799.89269,77.8 C801.09889,79 802.60663,79.5 804.61696,79.5 C805.22006,79.5 805.92367,79.4 806.7278,79.3 C807.53193,79.2 808.13503,79 808.73813,78.8 L810.24587,86.2 C809.44174,86.9 808.23554,87.4 806.62728,87.8 C805.01902,88.2 803.41076,88.4 801.8025,88.4 C797.27927,88.4 793.7612,87.1 791.04726,84.4 C788.43384,81.8 787.02661,77.6 787.02661,72 L787.02661,36 L777.98014,36 L777.98014,28 L787.02661,28 L787.02661,14 L798.0834,14 L798.0834,14 Z M846.53225,88.2 C838.1894,88.2 831.55532,85.5 826.63002,80 C821.70473,74.5 819.19182,67.4 819.19182,58.6 L819.19182,56.2 C819.19182,47.8 821.70473,40.8 826.83106,35.2 C831.95739,29.6 837.88785,26.8 844.92399,26.8 C853.06581,26.8 859.09678,29.2 863.31847,34 C867.54015,38.8 869.55048,45.2 869.55048,53.3 L869.55048,60 L830.65068,60 L830.44964,60.3 C830.55016,66 832.0579,70.7 834.87236,74.3 C837.68681,78 841.60695,79.8 846.73328,79.8 C850.45238,79.8 853.6689,79.3 856.48336,78.2 C859.29782,77.2 861.71021,75.7 863.72053,73.9 L867.94222,80.9 C865.83137,83 863.01692,84.7 859.49885,86.1 C855.77975,87.5 851.55806,88.2 846.53225,88.2 L846.53225,88.2 L846.53225,88.2 Z M844.82347,35.7 C841.20488,35.7 838.08888,37.2 835.57597,40.3 C833.06307,43.4 831.45481,47.2 830.85171,51.8 L830.95222,52.1 L858.39317,52.1 L858.39317,50.7 C858.39317,46.5 857.28749,42.9 854.97562,40.1 C852.66374,37.1 849.3467,35.7 844.82347,35.7 L844.82347,35.7 L844.82347,35.7 Z M907.64615,57.3 C907.64615,48.5 910.05854,41.3 914.7828,35.7 C919.50707,30 926.04063,27.2 934.18245,27.2 C942.42478,27.2 948.95834,30 953.68261,35.7 C958.50739,41.4 960.81926,48.6 960.81926,57.4 L960.81926,58.6 C960.81926,67.4 958.40687,74.6 953.68261,80.3 C948.95834,85.9 942.42478,88.7 934.18245,88.7 C925.94011,88.7 919.50707,85.9 914.68229,80.2 C909.85751,74.6 907.54563,67.4 907.54563,58.6 L907.64615,57.3 L907.64615,57.3 Z M918.70294,58.5 C918.70294,64.7 920.00965,69.8 922.62307,73.8 C925.2365,77.8 929.15663,79.8 934.28296,79.8 C939.40929,79.8 943.22891,77.8 945.84234,73.8 C948.45576,69.8 949.76247,64.7 949.76247,58.5 L949.76247,57.3 C949.76247,51.2 948.45576,46.1 945.74182,42 C943.02788,37.9 939.20826,35.9 934.08193,35.9 C928.9556,35.9 925.13598,37.9 922.52256,42 C919.90913,46.1 918.60242,51.1 918.60242,57.3 L918.70294,58.5 L918.70294,58.5 Z M978.00755,87 L978.00755,36 L968.96108,36 L968.96108,28 L978.00755,28 L978.00755,20.5 C978.00755,14.2 979.71632,9.3 983.13388,5.9 C986.55143,2.5 991.27569,0.7 997.30667,0.7 C998.61338,0.7 999.81958,0.8 1001.12629,1 C1002.433,1.2 1003.84023,1.5 1005.44849,1.8 L1004.14178,10 C1003.43817,9.9 1002.63403,9.7 1001.72939,9.6 C1000.82474,9.5 999.81958,9.4 998.7139,9.4 C995.49738,9.4 993.08499,10.3 991.57724,12.2 C989.96898,14.1 989.26537,16.8 989.26537,20.4 L989.26537,28 L1001.32732,28 L1001.32732,36 L989.26537,36 L989.26537,87 L978.00755,87 L978.00755,87 Z M1086.3641,67 L1051.98753,67 L1044.24778,88 L1033.59305,88 L1064.65258,8 L1074.0006,8 L1104.55755,88 L1093.90282,88 L1086.3641,67 L1086.3641,67 Z M1055.90766,58 L1082.645,58 L1069.57788,22 L1069.27633,22 L1055.90766,58 L1055.90766,58 Z M1125.76648,87 L1114.70969,87 L1114.70969,2 L1125.76648,2 L1125.76648,87 L1125.76648,87 Z M1153.91104,87 L1142.85425,87 L1142.85425,2 L1153.91104,2 L1153.91104,87 L1153.91104,87 Z M1195.32375,88.2 C1186.9809,88.2 1180.34682,85.5 1175.42153,80 C1170.49623,74.5 1167.98332,67.4 1167.98332,58.6 L1167.98332,56.2 C1167.98332,47.8 1170.49623,40.8 1175.62256,35.2 C1180.74889,29.6 1186.67935,26.8 1193.71549,26.8 C1201.85731,26.8 1207.88828,29.2 1212.10997,34 C1216.33165,38.8 1218.34198,45.2 1218.34198,53.3 L1218.34198,60 L1179.44218,60 L1179.24114,60.3 C1179.34166,66 1180.8494,70.7 1183.66386,74.3 C1186.47832,78 1190.39845,79.8 1195.52478,79.8 C1199.24388,79.8 1202.46041,79.3 1205.27486,78.2 C1208.08932,77.2 1210.50171,75.7 1212.51203,73.9 L1216.73372,80.9 C1214.62288,83 1211.80842,84.7 1208.29035,86.1 C1204.57125,87.5 1200.34956,88.2 1195.32375,88.2 L1195.32375,88.2 L1195.32375,88.2 Z M1193.61497,35.7 C1189.99639,35.7 1186.88038,37.2 1184.36747,40.3 C1181.85457,43.4 1180.24631,47.2 1179.64321,51.8 L1179.74373,52.1 L1207.18467,52.1 L1207.18467,50.7 C1207.18467,46.5 1206.07899,42.9 1203.76712,40.1 C1201.45524,37.1 1198.1382,35.7 1193.61497,35.7 L1193.61497,35.7 L1193.61497,35.7 Z M1258.04591,37.5 L1252.417,37.2 C1249.50203,37.2 1246.98912,37.9 1245.07931,39.2 C1243.06898,40.5 1241.56124,42.4 1240.45556,44.9 L1240.45556,87 L1229.39877,87 L1229.39877,28 L1239.24936,28 L1240.35504,36.6 C1242.06382,33.5 1244.17466,31.2 1246.68757,29.5 C1249.20048,27.8 1252.11545,26.9 1255.43249,26.9 C1256.23662,26.9 1257.04075,27 1257.74436,27.1 C1258.44797,27.2 1259.15159,27.4 1259.55365,27.5 L1258.04591,37.5 L1258.04591,37.5 Z M1265.48411,58.7 C1265.48411,49.2 1267.59496,41.5 1271.81664,35.7 C1276.03832,29.9 1281.86827,26.9 1289.30647,26.9 C1293.12609,26.9 1296.44313,27.7 1299.3581,29.2 C1302.27307,30.7 1304.68546,32.9 1306.59527,35.7 L1307.90199,28 L1316.74742,28 L1316.74742,87.5 C1316.74742,95.1 1314.43554,100.9 1309.91231,105 C1305.38908,109.1 1298.85552,111.1 1290.31164,111.1 C1287.39666,111.1 1284.28066,110.7 1280.86311,109.9 C1277.44555,109.1 1274.53058,108 1271.91716,106.7 L1274.73161,98.3 C1276.74194,99.4 1279.15433,100.3 1281.86827,101 C1284.58221,101.7 1287.39666,102 1290.21112,102 C1295.639,102 1299.55913,100.8 1301.97153,98.4 C1304.38392,96 1305.69063,92.4 1305.69063,87.5 L1305.69063,80.8 C1303.6803,83.3 1301.36843,85.1 1298.65449,86.4 C1295.94055,87.7 1292.72403,88.3 1289.20596,88.3 C1281.86827,88.3 1276.03832,85.7 1271.81664,80.4 C1267.59496,75.1 1265.48411,68.3 1265.48411,59.8 L1265.48411,58.7 L1265.48411,58.7 Z M1276.54091,60.1 C1276.54091,66.1 1277.84762,70.9 1280.36052,74.5 C1282.87343,78.1 1286.79357,79.9 1292.02041,79.9 C1295.33745,79.9 1298.05139,79.2 1300.26275,77.7 C1302.47411,76.2 1304.2834,74.1 1305.69063,71.4 L1305.69063,44.1 C1304.2834,41.6 1302.47411,39.6 1300.26275,38.1 C1298.05139,36.6 1295.33745,35.9 1292.12093,35.9 C1286.89408,35.9 1283.07446,38.1 1280.46104,42.4 C1277.84762,46.7 1276.54091,52.3 1276.54091,59.1 L1276.54091,60.1 L1276.54091,60.1 Z M1350.52089,65.5 L1352.4307,73 L1352.73225,73 L1367.50814,28 L1379.67061,28 L1354.44102,96.7 C1352.93328,100.7 1350.72192,104.2 1347.90747,107.2 C1345.09301,110.2 1341.27339,111.7 1336.44861,111.7 C1335.54396,111.7 1334.43828,111.6 1333.03106,111.4 C1331.62383,111.2 1330.61867,111 1329.91505,110.8 L1331.02073,102.3 C1330.8197,102.3 1331.4228,102.3 1333.03106,102.4 C1334.5388,102.5 1335.54396,102.6 1335.94603,102.6 C1338.2579,102.6 1340.16771,101.6 1341.67546,99.5 C1343.1832,97.4 1344.3894,95.2 1345.39456,92.7 L1348.00798,86.5 L1325.69337,28 L1337.85584,28 L1350.52089,65.5 L1350.52089,65.5 Z M39.487014,235 C39.084948,233.2 38.7834,231.6 38.582367,230.2 C38.381334,228.8 38.280818,227.4 38.180302,226 C36.169976,228.9 33.456037,231.3 30.239515,233.2 C26.922478,235.1 23.404408,236.1 19.685306,236.1 C13.453296,236.1 8.628515,234.5 5.411994,231.3 C2.094956,228.1 0.486696,223.7 0.486696,218.1 C0.486696,212.4 2.79857,207.9 7.422319,204.7 C12.046068,201.5 18.378594,199.9 26.31938,199.9 L38.180302,199.9 L38.180302,194.1 C38.180302,190.7 37.074623,188 34.963781,186 C32.752423,184 29.736934,183 25.716283,183 C22.198213,183 19.283241,183.9 17.071882,185.6 C14.860524,187.3 13.754845,189.4 13.754845,191.9 L3.200635,191.9 L3.100119,191.6 C2.899087,187.3 5.009929,183.5 9.332129,179.9 C13.654329,176.3 19.383757,174.6 26.31938,174.6 C33.154488,174.6 38.7834,176.3 42.904567,179.7 C47.126251,183.1 49.237093,187.9 49.237093,194.3 L49.237093,223 C49.237093,225.1 49.337609,227.2 49.538642,229.2 C49.739674,231.2 50.141739,233.1 50.744837,235.1 L39.487014,235.1 L39.487014,235 L39.487014,235 Z M21.394083,226.5 C25.314218,226.5 28.832288,225.5 32.048809,223.5 C35.26533,221.5 37.275655,219.2 38.180302,216.6 L38.180302,207 L26.017832,207 C21.695631,207 18.177562,208.1 15.564138,210.3 C12.950715,212.5 11.644003,215.1 11.644003,218 C11.644003,220.6 12.448133,222.7 14.15691,224.2 C15.865687,225.7 18.177562,226.5 21.394083,226.5 L21.394083,226.5 L21.394083,226.5 Z M73.964098,175 L74.768229,183.8 C76.778554,180.7 79.190945,178.2 82.206434,176.5 C85.221922,174.8 88.639476,173.9 92.358578,173.9 C98.79162,173.9 103.716918,175.8 107.234988,179.5 C110.753058,183.2 112.461835,189 112.461835,196.8 L112.461835,234 L101.405044,234 L101.405044,196.9 C101.405044,191.7 100.399881,188 98.389555,185.8 C96.37923,183.6 93.263225,182.5 89.041541,182.5 C86.026052,182.5 83.312113,183.2 80.899722,184.7 C78.587847,186.2 76.678038,188.2 75.27081,190.8 L75.27081,234 L64.214019,234 L64.214019,175 L73.964098,175 L73.964098,175 Z M126.634631,205.5 C126.634631,196 128.644956,188.3 132.766124,182.5 C136.786775,176.7 142.516203,173.7 149.853892,173.7 C153.271446,173.7 156.38745,174.3 159.10139,175.6 C161.81533,176.9 164.026688,178.7 165.936497,181.2 L165.936497,149 L176.993288,149 L176.993288,234 L167.946823,234 L166.740627,226.7 C164.830818,229.5 162.418427,231.6 159.603971,233 C156.789515,234.4 153.572994,235.1 149.853892,235.1 C142.61672,235.1 136.987808,232.5 132.967156,227.3 C128.845989,222.1 126.835663,215.2 126.835663,206.7 L126.835663,205.5 L126.634631,205.5 L126.634631,205.5 Z M137.691422,207.1 C137.691422,213 138.897617,217.7 141.310008,221.2 C143.722399,224.7 147.441501,226.5 152.567832,226.5 C155.784353,226.5 158.397776,225.8 160.609134,224.4 C162.719976,223 164.529269,221 165.936497,218.4 L165.936497,191.3 C164.529269,188.9 162.820492,187 160.609134,185.6 C158.397776,184.2 155.784353,183.5 152.768864,183.5 C147.642534,183.5 143.923431,185.6 141.410524,189.8 C138.998133,194 137.791938,199.4 137.791938,206.1 L137.791938,207.1 L137.691422,207.1 L137.691422,207.1 Z M234.187053,235 L223.130262,235 L223.130262,155 L234.187053,155 L234.187053,235 L234.187053,235 Z M261.929547,175 L262.733678,183.8 C264.744003,180.7 267.156394,178.2 270.171882,176.5 C273.187371,174.8 276.604925,173.9 280.324027,173.9 C286.757069,173.9 291.682367,175.8 295.200437,179.5 C298.718507,183.2 300.427284,189 300.427284,196.8 L300.427284,234 L289.370492,234 L289.370492,196.9 C289.370492,191.7 288.36533,188 286.355004,185.8 C284.344678,183.6 281.228674,182.5 277.00699,182.5 C273.991501,182.5 271.277562,183.2 268.865171,184.7 C266.553296,186.2 264.643487,188.2 263.236259,190.8 L263.236259,234 L252.179468,234 L252.179468,175 L261.929547,175 L261.929547,175 Z M320.631056,234 L320.631056,183 L311.584591,183 L311.584591,175 L320.631056,175 L320.631056,167.5 C320.631056,161.2 322.339833,156.3 325.757387,152.9 C329.17494,149.5 333.899206,147.7 339.930183,147.7 C341.236894,147.7 342.44309,147.8 343.749801,148 C345.056513,148.2 346.463741,148.5 348.072002,148.8 L346.76529,157 C346.061676,156.9 345.257546,156.7 344.352899,156.6 C343.448253,156.5 342.44309,156.4 341.337411,156.4 C338.12089,156.4 335.708499,157.3 334.200755,159.2 C332.592494,161.1 331.88888,163.8 331.88888,167.4 L331.88888,174.9 L343.950834,174.9 L343.950834,182.9 L331.88888,182.9 L331.88888,233.9 L320.631056,234 L320.631056,234 Z M380.136696,235.2 C371.793844,235.2 365.15977,232.5 360.234472,227 C355.309174,221.5 352.796267,214.4 352.796267,205.6 L352.796267,203.2 C352.796267,194.8 355.309174,187.8 360.435504,182.2 C365.561835,176.6 371.492295,173.8 378.528435,173.8 C386.670254,173.8 392.701231,176.2 396.922915,181 C401.044083,185.8 403.154925,192.2 403.154925,200.3 L403.154925,207 L364.255123,207 L364.054091,207.3 C364.154607,213 365.662351,217.7 368.476807,221.3 C371.291263,225 375.211398,226.8 380.337728,226.8 C384.056831,226.8 387.273352,226.3 390.087808,225.2 C392.902264,224.2 395.314654,222.7 397.32498,220.9 L401.546664,227.9 C399.435822,230 396.621366,231.7 393.103296,233.1 C389.585226,234.5 385.16251,235.2 380.136696,235.2 L380.136696,235.2 L380.136696,235.2 Z M378.427919,182.7 C374.809333,182.7 371.693328,184.2 369.180421,187.3 C366.566998,190.3 365.059253,194.2 364.456156,198.8 L364.556672,199.1 L391.997617,199.1 L391.997617,197.7 C391.997617,193.5 390.891938,189.9 388.580064,187.1 C386.268189,184.3 382.951152,182.7 378.427919,182.7 L378.427919,182.7 L378.427919,182.7 Z M439.24027,227.4 C442.85886,227.4 446.07538,226.3 448.88983,224.1 C451.70429,221.9 453.011,219.2 453.011,216 L462.8616,216 L462.96211,216.3 C463.16315,221.4 460.85127,225.9 456.02649,229.8 C451.20171,233.7 445.5728,235.7 439.13975,235.7 C430.39484,235.7 423.66025,232.9 418.935981,227.3 C414.312232,221.7 412.000357,214.7 412.000357,206.2 L412.000357,204 C412.000357,195.6 414.312232,188.6 419.0365,183 C423.66025,177.4 430.39484,174.6 439.13975,174.6 C446.17589,174.6 452.00584,176.6 456.52907,180.7 C461.0523,184.8 463.16315,189.8 463.06263,195.7 L462.96211,196 L453.011,196 C453.011,192.4 451.70429,189.3 449.09087,186.8 C446.47744,184.3 443.16041,183 439.24027,183 C433.51084,183 429.38967,185 426.87677,189.1 C424.36386,193.2 423.15766,198.1 423.15766,204 L423.15766,206.3 C423.15766,212.3 424.36386,217.4 426.87677,221.4 C429.28916,225.4 433.41033,227.4 439.24027,227.4 L439.24027,227.4 L439.24027,227.4 Z M488.49325,161 L488.49325,175 L499.55004,175 L499.55004,183 L488.49325,183 L488.49325,218.9 C488.49325,221.7 489.09635,223.6 490.30254,224.8 C491.50874,226 493.01648,226.5 495.02681,226.5 C495.6299,226.5 496.33352,226.4 497.13765,226.3 C497.94178,226.2 498.54488,226 499.14797,225.8 L500.65572,233.2 C499.85159,233.9 498.64539,234.4 497.03713,234.8 C495.42887,235.2 493.82061,235.4 492.21235,235.4 C487.68912,235.4 484.17105,234.1 481.45711,231.4 C478.84369,228.8 477.43646,224.6 477.43646,219 L477.43646,183 L468.38999,183 L468.38999,175 L477.43646,175 L477.43646,161 L488.49325,161 L488.49325,161 Z M525.68427,234 L514.62748,234 L514.62748,175 L525.68427,175 L525.68427,234 L525.68427,234 Z M525.68427,160 L514.62748,160 L514.62748,149 L525.68427,149 L525.68427,160 L525.68427,160 Z M539.75655,204.3 C539.75655,195.5 542.16894,188.3 546.89321,182.7 C551.61747,177 558.15103,174.2 566.29285,174.2 C574.53519,174.2 581.06875,177 585.79301,182.7 C590.61779,188.4 592.92967,195.6 592.92967,204.4 L592.92967,205.6 C592.92967,214.4 590.51728,221.6 585.79301,227.3 C581.06875,232.9 574.53519,235.7 566.29285,235.7 C558.05052,235.7 551.61747,232.9 546.79269,227.2 C541.96791,221.6 539.65604,214.4 539.65604,205.6 L539.75655,204.3 L539.75655,204.3 Z M550.81334,205.5 C550.81334,211.7 552.12006,216.8 554.73348,220.8 C557.3469,224.8 561.26704,226.8 566.39337,226.8 C571.5197,226.8 575.33932,224.8 577.95274,220.8 C580.56616,216.8 581.87288,211.7 581.87288,205.5 L581.87288,204.3 C581.87288,198.2 580.56616,193.1 577.85222,189 C575.2388,184.9 571.31867,182.9 566.19234,182.9 C561.066,182.9 557.24639,184.9 554.63296,189 C552.01954,193.1 550.71283,198.1 550.71283,204.3 L550.81334,205.5 L550.81334,205.5 Z M643.89142,225.3 C641.98161,228.5 639.66974,230.9 636.75477,232.6 C633.83979,234.3 630.42224,235.2 626.60262,235.2 C620.16958,235.2 615.14376,233.1 611.52518,229 C607.90659,224.9 606.0973,218.5 606.0973,209.8 L606.0973,175 L616.14893,175 L616.14893,210 C616.14893,216.3 617.05357,220.6 618.96338,223 C620.87319,225.4 623.78817,226.6 627.80882,226.6 C631.72895,226.6 634.94547,225.8 637.45838,224.3 C639.97129,222.8 641.8811,220.6 643.18781,217.7 L643.18781,175 L654.2446,175 L654.2446,234 L644.59504,234 L643.89142,225.3 L643.89142,225.3 Z M704.20119,218.6 C704.20119,216.3 703.29654,214.4 701.48725,212.8 C699.67796,211.3 696.36092,210 691.33511,208.9 C684.19845,207.4 678.87109,205.3 675.35302,202.6 C671.73443,200 670.02566,196.4 670.02566,191.8 C670.02566,187.1 672.03598,183 676.05663,179.7 C680.07728,176.4 685.30413,174.7 691.83769,174.7 C698.6728,174.7 704.10068,176.4 708.02081,179.9 C712.04146,183.4 713.95127,187.6 713.75024,192.6 L713.64972,192.9 L703.49758,192.9 C703.49758,190.4 702.3919,188.1 700.28106,186 C698.17021,184 695.25524,183 691.73717,183 C687.91755,183 685.1031,183.8 683.2938,185.5 C681.48451,187.1 680.57986,189.1 680.57986,191.5 C680.57986,193.8 681.384,195.6 682.99226,196.9 C684.60052,198.2 687.91755,199.4 692.84285,200.4 C700.18054,202 705.70894,204.1 709.32752,206.8 C712.94611,209.5 714.7554,213.1 714.7554,217.7 C714.7554,222.9 712.64456,227 708.42288,230.2 C704.20119,233.4 698.77331,235 691.9382,235 C684.5,235 678.56954,233.1 674.34786,229.4 C670.02566,225.6 668.01533,221.2 668.21636,216.2 L668.31688,215.9 L678.46902,215.9 C678.67006,219.7 680.07728,222.4 682.69071,224.1 C685.30413,225.8 688.42014,226.7 691.9382,226.7 C695.75782,226.7 698.6728,225.9 700.78364,224.4 C703.09551,223 704.20119,221.1 704.20119,218.6 L704.20119,218.6 L704.20119,218.6 Z M758.88205,235 L758.88205,155 L783.40802,155 C793.86172,155 802.30508,158.2 808.63761,164.6 C814.97014,171 818.18666,179.3 818.18666,189.5 L818.18666,200.4 C818.18666,210.6 814.97014,218.9 808.63761,225.3 C802.30508,231.7 793.86172,234.9 783.40802,234.9 L758.88205,234.9 L758.88205,235 Z M769.93884,163 L769.93884,226 L783.50854,226 C790.84623,226 796.57566,223.6 800.79734,218.7 C805.01902,213.8 807.12986,207.6 807.12986,200 L807.12986,189 C807.12986,181.5 805.01902,175.3 800.79734,170.4 C796.57566,165.5 790.84623,163.1 783.50854,163.1 L769.93884,163.1 L769.93884,163 Z M842.31056,234 L831.25377,234 L831.25377,175 L842.31056,175 L842.31056,234 L842.31056,234 Z M842.31056,160 L831.25377,160 L831.25377,149 L842.31056,149 L842.31056,160 L842.31056,160 Z M893.57387,218.6 C893.57387,216.3 892.66922,214.4 890.85993,212.8 C889.05064,211.3 885.7336,210 880.70778,208.9 C873.57113,207.4 868.24376,205.3 864.72569,202.6 C861.10711,200 859.39833,196.4 859.39833,191.8 C859.39833,187.1 861.40866,183 865.42931,179.7 C869.44996,176.4 874.67681,174.7 881.21037,174.7 C888.04547,174.7 893.47335,176.4 897.39349,179.9 C901.41414,183.4 903.32395,187.6 903.12292,192.6 L903.0224,192.9 L892.87025,192.9 C892.87025,190.4 891.76458,188.1 889.65373,186 C887.54289,184 884.62792,183 881.10985,183 C877.29023,183 874.47577,183.8 872.66648,185.5 C870.85719,187.1 869.95254,189.1 869.95254,191.5 C869.95254,193.8 870.75667,195.6 872.36493,196.9 C873.97319,198.2 877.29023,199.4 882.21553,200.4 C889.55322,202 895.08161,204.1 898.7002,206.8 C902.31878,209.5 904.12808,213.1 904.12808,217.7 C904.12808,222.9 902.01724,227 897.79555,230.2 C893.57387,233.4 888.14599,235 881.31088,235 C873.87268,235 867.94222,233.1 863.72053,229.4 C859.39833,225.6 857.38801,221.2 857.58904,216.2 L857.68956,215.9 L867.8417,215.9 C868.04273,219.7 869.44996,222.4 872.06338,224.1 C874.67681,225.8 877.79281,226.7 881.31088,226.7 C885.1305,226.7 888.04547,225.9 890.15631,224.4 C892.46819,223 893.57387,221.1 893.57387,218.6 L893.57387,218.6 L893.57387,218.6 Z M943.02788,235.2 C934.68503,235.2 928.05095,232.5 923.12566,227 C918.20036,221.5 915.68745,214.4 915.68745,205.6 L915.68745,203.2 C915.68745,194.8 918.20036,187.8 923.32669,182.2 C928.45302,176.6 934.38348,173.8 941.41962,173.8 C949.56144,173.8 955.59241,176.2 959.8141,181 C964.03578,185.8 966.04611,192.2 966.04611,200.3 L966.04611,207 L927.14631,207 L926.94527,207.3 C927.04579,213 928.55353,217.7 931.36799,221.3 C934.18245,225 938.10258,226.8 943.22891,226.8 C946.94801,226.8 950.16454,226.3 952.97899,225.2 C955.79345,224.2 958.20584,222.7 960.21616,220.9 L964.43785,227.9 C962.32701,230 959.51255,231.7 955.99448,233.1 C952.27538,234.5 948.05369,235.2 943.02788,235.2 L943.02788,235.2 L943.02788,235.2 Z M941.3191,182.7 C937.70052,182.7 934.58451,184.2 932.0716,187.3 C929.5587,190.4 927.95044,194.2 927.34734,198.8 L927.44786,199.1 L954.8888,199.1 L954.8888,197.7 C954.8888,193.5 953.78312,189.9 951.47125,187.1 C949.15937,184.1 945.84234,182.7 941.3191,182.7 L941.3191,182.7 L941.3191,182.7 Z M1014.49496,235 C1014.09289,233.2 1013.79134,231.6 1013.59031,230.2 C1013.38928,228.8 1013.28876,227.4 1013.18824,226 C1011.17792,228.9 1008.46398,231.3 1005.24746,233.2 C1001.93042,235.1 998.41235,236.1 994.69325,236.1 C988.46124,236.1 983.63646,234.5 980.41994,231.3 C977.20342,228.1 975.49464,223.7 975.49464,218.1 C975.49464,212.4 977.80651,207.9 982.43026,204.7 C987.05401,201.5 993.38654,199.9 1001.32732,199.9 L1013.08773,199.9 L1013.08773,194.1 C1013.08773,190.7 1011.98205,188 1009.87121,186 C1007.65985,184 1004.64436,183 1000.62371,183 C997.10564,183 994.19067,183.9 991.97931,185.6 C989.76795,187.3 988.66227,189.4 988.66227,191.9 L978.10806,191.9 L978.00755,191.6 C977.80651,187.3 979.91736,183.5 984.23956,179.9 C988.66227,176.4 994.29118,174.6 1001.22681,174.6 C1008.06191,174.6 1013.69083,176.3 1017.81199,179.7 C1022.03368,183.1 1024.14452,187.9 1024.14452,194.3 L1024.14452,223 C1024.14452,225.1 1024.24504,227.2 1024.44607,229.2 C1024.6471,231.2 1025.04917,233.1 1025.65226,235.1 L1014.49496,235.1 L1014.49496,235 Z M996.40203,226.5 C1000.32216,226.5 1003.84023,225.5 1007.05675,223.5 C1010.17276,221.5 1012.2836,219.2 1013.18824,216.6 L1013.18824,207 L1001.02577,207 C996.70357,207 993.1855,208.1 990.57208,210.3 C987.95866,212.5 986.65195,215.1 986.65195,218 C986.65195,220.6 987.45608,222.7 989.16485,224.2 C990.87363,225.7 993.1855,226.5 996.40203,226.5 L996.40203,226.5 L996.40203,226.5 Z M1073.79956,218.6 C1073.79956,216.3 1072.89492,214.4 1071.08562,212.8 C1069.27633,211.3 1065.95929,210 1060.93348,208.9 C1053.79682,207.4 1048.46946,205.3 1044.95139,202.6 C1041.3328,200 1039.62403,196.4 1039.62403,191.8 C1039.62403,187.1 1041.63435,183 1045.655,179.7 C1049.67566,176.4 1054.9025,174.7 1061.43606,174.7 C1068.27117,174.7 1073.69905,176.4 1077.61918,179.9 C1081.63983,183.4 1083.54964,187.6 1083.34861,192.6 L1083.24809,192.9 L1073.09595,192.9 C1073.09595,190.4 1071.99027,188.1 1069.87943,186 C1067.76859,184 1064.85361,183 1061.33554,183 C1057.51593,183 1054.70147,183.8 1052.89218,185.5 C1051.08288,187.1 1050.17824,189.1 1050.17824,191.5 C1050.17824,193.8 1050.98237,195.6 1052.59063,196.9 C1054.19889,198.2 1057.51593,199.4 1062.44122,200.4 C1069.77891,202 1075.30731,204.1 1078.92589,206.8 C1082.54448,209.5 1084.35377,213.1 1084.35377,217.7 C1084.35377,222.9 1082.24293,227 1078.02125,230.2 C1073.79956,233.4 1068.37168,235 1061.53658,235 C1054.09837,235 1048.16791,233.1 1043.94623,229.4 C1039.62403,225.6 1037.6137,221.2 1037.81473,216.2 L1037.91525,215.9 L1048.06739,215.9 C1048.26843,219.7 1049.67566,222.4 1052.28908,224.1 C1054.9025,225.8 1058.01851,226.7 1061.53658,226.7 C1065.3562,226.7 1068.27117,225.9 1070.38201,224.4 C1072.7944,223 1073.79956,221.1 1073.79956,218.6 L1073.79956,218.6 L1073.79956,218.6 Z M1122.95203,235.2 C1114.60917,235.2 1107.9751,232.5 1103.0498,227 C1098.1245,221.5 1095.6116,214.4 1095.6116,205.6 L1095.6116,203.2 C1095.6116,194.8 1098.1245,187.8 1103.25083,182.2 C1108.37716,176.6 1114.30763,173.8 1121.34376,173.8 C1129.48558,173.8 1135.51656,176.2 1139.73824,181 C1143.95993,185.8 1145.97025,192.2 1145.97025,200.3 L1145.97025,207 L1107.07045,207 L1106.86942,207.3 C1106.96994,213 1108.47768,217.7 1111.29214,221.3 C1114.10659,225 1118.02673,226.8 1123.15306,226.8 C1126.87216,226.8 1130.08868,226.3 1132.90314,225.2 C1135.71759,224.2 1138.12998,222.7 1140.14031,220.9 L1144.36199,227.9 C1142.25115,230 1139.4367,231.7 1135.91863,233.1 C1132.19952,234.5 1127.97784,235.2 1122.95203,235.2 L1122.95203,235.2 L1122.95203,235.2 Z M1121.24325,182.7 C1117.62466,182.7 1114.50866,184.2 1111.99575,187.3 C1109.48284,190.4 1107.87458,194.2 1107.27149,198.8 L1107.372,199.1 L1134.81295,199.1 L1134.81295,197.7 C1134.81295,193.5 1133.70727,189.9 1131.39539,187.1 C1129.08352,184.1 1125.76648,182.7 1121.24325,182.7 L1121.24325,182.7 L1121.24325,182.7 Z M1192.20774,218.6 C1192.20774,216.3 1191.3031,214.4 1189.4938,212.8 C1187.68451,211.3 1184.36747,210 1179.34166,208.9 C1172.205,207.4 1166.87764,205.3 1163.35957,202.6 C1159.74098,200 1158.03221,196.4 1158.03221,191.8 C1158.03221,187.1 1160.04253,183 1164.06319,179.7 C1168.08384,176.4 1173.31068,174.7 1179.84424,174.7 C1186.67935,174.7 1192.10723,176.4 1196.02736,179.9 C1200.04801,183.4 1201.95782,187.6 1201.75679,192.6 L1201.65627,192.9 L1191.50413,192.9 C1191.50413,190.4 1190.39845,188.1 1188.28761,186 C1186.17677,184 1183.2618,183 1179.74373,183 C1175.92411,183 1173.10965,183.8 1171.30036,185.5 C1169.49106,187.1 1168.58642,189.1 1168.58642,191.5 C1168.58642,193.8 1169.39055,195.6 1170.99881,196.9 C1172.60707,198.2 1175.92411,199.4 1180.8494,200.4 C1188.18709,202 1193.71549,204.1 1197.33407,206.8 C1200.95266,209.5 1202.76195,213.1 1202.76195,217.7 C1202.76195,222.9 1200.65111,227 1196.42943,230.2 C1192.20774,233.4 1186.77986,235 1179.94476,235 C1172.50655,235 1166.57609,233.1 1162.35441,229.4 C1158.03221,225.6 1156.02188,221.2 1156.22292,216.2 L1156.32343,215.9 L1166.47558,215.9 C1166.67661,219.7 1168.08384,222.4 1170.69726,224.1 C1173.31068,225.8 1176.42669,226.7 1179.94476,226.7 C1183.76438,226.7 1186.67935,225.9 1188.79019,224.4 C1191.20258,223 1192.20774,221.1 1192.20774,218.6 L1192.20774,218.6 L1192.20774,218.6 Z" id="path-3"></path>
                                        </g>
                                    </g>
                                    <g id="Group-2" fill-rule="nonzero">
                                        <path d="M409.804885,0 C409.804885,0 415.534313,2.7 420.057546,6.1 C424.580778,9.5 426.490588,14 426.490588,14 L505.797935,155.3 C505.797935,155.3 431.114337,289.9 426.892653,297 C422.771485,304.1 424.982844,300.3 420.057546,306.4 C415.031732,312.4 403.874424,314.1 403.874424,314.1 L374.021088,313.8 L461.671287,155.8 L374.925735,0 L409.804885,0 Z" id="Path_1_" fill="#326297"></path>
                                        <path d="M355.32506,3.3 L355.32506,1.5 L220.633241,1.5 L36.6884432,1.5 C16.6857029,1.5 0.502581414,17.6 0.502581414,37.5 L0.502581414,280.5 C0.502581414,300.4 16.6857029,316.5 36.6884432,316.5 L220.633241,316.5 L355.32506,316.5 L355.32506,314.9 L356.330222,315 L441.970095,157.4 L356.12919,3 L355.32506,3.3 Z" id="Combined-Shape" stroke="#65666A" fill="#65666A"></path>
                                    </g>
                                </g>
                                <path d="M2042.49087,38.5 C2042.49087,121 2042.49087,204 2042.49087,287.4" id="Shape" stroke="#326297" stroke-width="3.375"></path>
                            </g>
                            <g id="Group" transform="translate(52.268467, 86.000000)" fill-rule="nonzero" fill="#FFFFFF">
                                <polygon id="Path-2" points="0.502581414 141 25.1290707 141 25.933201 38.3 89.1579428 142 116.598888 142 115.593725 1 92.4749801 0.9 91.8718824 103.9 27.8430103 1.9 1.00516283 1"></polygon>
                                <polygon id="Path-4" points="140.722796 1 164.846704 1.3 164.846704 142 140.722796 142"></polygon>
                                <polygon id="Path-5" points="188.970612 1 214.099682 1 213.798133 57 278.430103 57.3 278.028038 2 303.559174 2 303.559174 142 278.430103 142 278.430103 80 214.099682 80 214.401231 142 188.970612 142"></polygon>
                            </g>
                        </g>
                    </g>
                </g>
            </g>
            <g id="Group" transform="translate(2123.000000, 42.000000)">
                <g id="Shape" fill="#326297">
                    <g id="path-5-link">
                        <path d="M45.6624277,78.7 C42.8462428,80.6 37.1132948,82.5 29.7710983,82.5 C12.7734104,82.5 0,68.4 0,42.4 C0,17.6 12.7734104,0.8 31.4809249,0.8 C39.0242775,0.8 43.7514451,2.9 45.7630058,4.3 L43.8520231,12.6 C40.9352601,10.7 36.7109827,9.3 31.6820809,9.3 C17.500578,9.3 8.14682081,21.2 8.14682081,42 C8.14682081,61.4 16.6959538,73.9 31.3803468,73.9 C36.1075145,73.9 40.9352601,72.6 44.0531792,70.6 L45.6624277,78.7 Z" id="path-5"></path>
                    </g>
                    <g id="path-5-link">
                        <path d="M45.6624277,78.7 C42.8462428,80.6 37.1132948,82.5 29.7710983,82.5 C12.7734104,82.5 0,68.4 0,42.4 C0,17.6 12.7734104,0.8 31.4809249,0.8 C39.0242775,0.8 43.7514451,2.9 45.7630058,4.3 L43.8520231,12.6 C40.9352601,10.7 36.7109827,9.3 31.6820809,9.3 C17.500578,9.3 8.14682081,21.2 8.14682081,42 C8.14682081,61.4 16.6959538,73.9 31.3803468,73.9 C36.1075145,73.9 40.9352601,72.6 44.0531792,70.6 L45.6624277,78.7 Z" id="path-5"></path>
                    </g>
                </g>
                <g id="Shape" transform="translate(73.000000, 1.000000)" fill="#326297">
                    <g id="path-6-link">
                        <path d="M0.4219653,2.1 C4.3445087,1 9.9768786,0.5 15.4080925,0.5 C23.7560694,0.5 29.086705,2.5 32.908671,7 C35.926012,10.5 37.635838,15.9 37.635838,22 C37.635838,32.5 32.606936,39.4 26.2705202,42.2 L26.2705202,42.6 C30.89711,44.7 33.713295,50.4 35.121387,58.6 C37.132948,69.6 38.54104,77.3 39.747977,80.4 L31.701734,80.4 C30.695954,78.2 29.388439,71.3 27.678613,61.5 C25.8682081,50.6 22.649711,46.5 15.6092486,46.1 L8.267052,46.1 L8.267052,80.4 L0.5225434,80.4 L0.5225434,2.1 L0.4219653,2.1 Z M8.166474,38.2 L16.1121387,38.2 C24.4601156,38.2 29.690173,32.2 29.690173,23.2 C29.690173,13 24.0578035,8.5 15.8104046,8.4 C12.0890173,8.4 9.3734104,8.9 8.065896,9.3 L8.065896,38.2 L8.166474,38.2 Z" id="path-6"></path>
                    </g>
                    <g id="path-6-link">
                        <path d="M0.4219653,2.1 C4.3445087,1 9.9768786,0.5 15.4080925,0.5 C23.7560694,0.5 29.086705,2.5 32.908671,7 C35.926012,10.5 37.635838,15.9 37.635838,22 C37.635838,32.5 32.606936,39.4 26.2705202,42.2 L26.2705202,42.6 C30.89711,44.7 33.713295,50.4 35.121387,58.6 C37.132948,69.6 38.54104,77.3 39.747977,80.4 L31.701734,80.4 C30.695954,78.2 29.388439,71.3 27.678613,61.5 C25.8682081,50.6 22.649711,46.5 15.6092486,46.1 L8.267052,46.1 L8.267052,80.4 L0.5225434,80.4 L0.5225434,2.1 L0.4219653,2.1 Z M8.166474,38.2 L16.1121387,38.2 C24.4601156,38.2 29.690173,32.2 29.690173,23.2 C29.690173,13 24.0578035,8.5 15.8104046,8.4 C12.0890173,8.4 9.3734104,8.9 8.065896,9.3 L8.065896,38.2 L8.166474,38.2 Z" id="path-6"></path>
                    </g>
                </g>
                <g id="Shape" transform="translate(136.000000, 0.000000)">
                    <g id="path-8-link" fill="#326297">
                        <path d="M2.395376,68.9 C5.915607,71.7 10.944509,74.1 16.375723,74.1 C24.321387,74.1 29.048555,68.6 29.048555,60.6 C29.048555,53.2 25.830058,49 17.683237,44.9 C7.82659,40.3 1.791908,33.6 1.791908,22.4 C1.791908,10.1 9.536416,0.9 21.304046,0.9 C27.439306,0.9 31.965318,2.8 34.680925,4.8 L32.568786,13.1 C30.557225,11.7 26.534104,9.3 21.10289,9.3 C12.855491,9.3 9.737572,15.8 9.737572,21.2 C9.737572,28.6 13.358382,32.3 21.706358,36.5 C31.86474,41.7 37.094798,48.1 37.094798,59.8 C37.094798,72 30.154913,82.6 15.97341,82.6 C10.139884,82.6 3.803468,80.4 0.584971,77.5 L2.395376,68.9 Z" id="path-8"></path>
                    </g>
                    <g id="path-8-link" fill="#000000">
                        <path d="M2.395376,68.9 C5.915607,71.7 10.944509,74.1 16.375723,74.1 C24.321387,74.1 29.048555,68.6 29.048555,60.6 C29.048555,53.2 25.830058,49 17.683237,44.9 C7.82659,40.3 1.791908,33.6 1.791908,22.4 C1.791908,10.1 9.536416,0.9 21.304046,0.9 C27.439306,0.9 31.965318,2.8 34.680925,4.8 L32.568786,13.1 C30.557225,11.7 26.534104,9.3 21.10289,9.3 C12.855491,9.3 9.737572,15.8 9.737572,21.2 C9.737572,28.6 13.358382,32.3 21.706358,36.5 C31.86474,41.7 37.094798,48.1 37.094798,59.8 C37.094798,72 30.154913,82.6 15.97341,82.6 C10.139884,82.6 3.803468,80.4 0.584971,77.5 L2.395376,68.9 Z" id="path-8"></path>
                    </g>
                    <g id="path-8-link" fill="url(#linearGradient-3)">
                        <path d="M2.395376,68.9 C5.915607,71.7 10.944509,74.1 16.375723,74.1 C24.321387,74.1 29.048555,68.6 29.048555,60.6 C29.048555,53.2 25.830058,49 17.683237,44.9 C7.82659,40.3 1.791908,33.6 1.791908,22.4 C1.791908,10.1 9.536416,0.9 21.304046,0.9 C27.439306,0.9 31.965318,2.8 34.680925,4.8 L32.568786,13.1 C30.557225,11.7 26.534104,9.3 21.10289,9.3 C12.855491,9.3 9.737572,15.8 9.737572,21.2 C9.737572,28.6 13.358382,32.3 21.706358,36.5 C31.86474,41.7 37.094798,48.1 37.094798,59.8 C37.094798,72 30.154913,82.6 15.97341,82.6 C10.139884,82.6 3.803468,80.4 0.584971,77.5 L2.395376,68.9 Z" id="path-8"></path>
                    </g>
                </g>
            </g>
        </g>
    </g>
</svg>