<?xml version="1.0" encoding="UTF-8"?>
<svg width="2016px" height="317px" viewBox="0 0 2016 317" version="1.1" xmlns="http://www.w3.org/2000/svg" xmlns:xlink="http://www.w3.org/1999/xlink">
    <!-- Generator: Sketch 47.1 (45422) - http://www.bohemiancoding.com/sketch -->
    <title>nihbanner</title>
    <desc>Created with Sketch.</desc>
    <defs></defs>
    <g id="Page-1" stroke="none" stroke-width="1" fill="none" fill-rule="evenodd">
        <g id="nihbanner" transform="translate(0.000000, -3.000000)">
            <rect id="Rectangle" fill="#D8D8D8" fill-rule="nonzero" x="19" y="3" width="1997" height="317" rx="28"></rect>
            <g id="Group-2" transform="translate(1297.000000, 0.000000)" fill="#326496">
                <path d="M10.546875,126 L10.546875,40.6875 L36.7382812,40.6875 C47.9102121,40.6875 56.8749662,44.1152001 63.6328125,50.9707031 C70.3906588,57.8262062 73.7695312,66.6835395 73.7695312,77.5429688 L73.7695312,89.203125 C73.7695312,100.101617 70.3906588,108.95895 63.6328125,115.775391 C56.8749662,122.591831 47.9102121,126 36.7382812,126 L10.546875,126 Z M22.0898438,49.7695312 L22.0898438,116.976562 L36.7382812,116.976562 C44.6289457,116.976562 50.8495866,114.378932 55.4003906,109.183594 C59.9511946,103.988255 62.2265625,97.3281656 62.2265625,89.203125 L62.2265625,77.4257812 C62.2265625,69.378866 59.9511946,62.7578385 55.4003906,57.5625 C50.8495866,52.3671615 44.6289457,49.7695312 36.7382812,49.7695312 L22.0898438,49.7695312 Z M126.386719,126 C125.996092,124.085928 125.69336,122.396492 125.478516,120.931641 C125.263671,119.46679 125.136719,117.992195 125.097656,116.507812 C122.949208,119.554703 120.146502,122.103505 116.689453,124.154297 C113.232405,126.205088 109.511739,127.230469 105.527344,127.230469 C98.9257482,127.230469 93.8965017,125.541033 90.4394531,122.162109 C86.9824046,118.783186 85.2539062,114.12503 85.2539062,108.1875 C85.2539062,102.132782 87.7050536,97.3965015 92.6074219,93.9785156 C97.5097901,90.5605298 104.160114,88.8515625 112.558594,88.8515625 L125.097656,88.8515625 L125.097656,82.5820312 C125.097656,78.8710752 123.964855,75.9316515 121.699219,73.7636719 C119.433582,71.5956923 116.230489,70.5117188 112.089844,70.5117188 C108.378888,70.5117188 105.36134,71.4589749 103.037109,73.3535156 C100.712879,75.2480563 99.5507812,77.5234242 99.5507812,80.1796875 L88.5351562,80.1796875 L88.4179688,79.828125 C88.1835926,75.218727 90.3613052,71.0000191 94.9511719,67.171875 C99.5410386,63.3437309 105.468714,61.4296875 112.734375,61.4296875 C119.921911,61.4296875 125.703103,63.2558411 130.078125,66.9082031 C134.453147,70.5605651 136.640625,75.8241844 136.640625,82.6992188 L136.640625,113.226562 C136.640625,115.492199 136.757811,117.679677 136.992188,119.789062 C137.226564,121.898448 137.656247,123.96874 138.28125,126 L126.386719,126 Z M107.226562,117.5625 C111.406271,117.5625 115.175764,116.488292 118.535156,114.339844 C121.894548,112.191396 124.082026,109.730483 125.097656,106.957031 L125.097656,96.6445312 L112.148438,96.6445312 C107.499977,96.6445312 103.779311,97.8163945 100.986328,100.160156 C98.1933454,102.503918 96.796875,105.257797 96.796875,108.421875 C96.796875,111.234389 97.6757725,113.460929 99.4335938,115.101562 C101.191415,116.742196 103.789045,117.5625 107.226562,117.5625 Z M168.632812,47.3085938 L168.632812,62.6015625 L180.644531,62.6015625 L180.644531,71.15625 L168.632812,71.15625 L168.632812,109.652344 C168.632812,112.621109 169.248041,114.710931 170.478516,115.921875 C171.708991,117.132819 173.339834,117.738281 175.371094,117.738281 C176.03516,117.738281 176.767574,117.660157 177.568359,117.503906 C178.369145,117.347655 179.082028,117.152345 179.707031,116.917969 L181.230469,124.828125 C180.371089,125.531254 179.111336,126.10742 177.451172,126.556641 C175.791007,127.005862 174.121102,127.230469 172.441406,127.230469 C167.753883,127.230469 164.023451,125.814467 161.25,122.982422 C158.476549,120.150376 157.089844,115.707062 157.089844,109.652344 L157.089844,71.15625 L147.011719,71.15625 L147.011719,62.6015625 L157.089844,62.6015625 L157.089844,47.3085938 L168.632812,47.3085938 Z M233.847656,126 C233.457029,124.085928 233.154298,122.396492 232.939453,120.931641 C232.724608,119.46679 232.597656,117.992195 232.558594,116.507812 C230.410146,119.554703 227.607439,122.103505 224.150391,124.154297 C220.693342,126.205088 216.972676,127.230469 212.988281,127.230469 C206.386686,127.230469 201.357439,125.541033 197.900391,122.162109 C194.443342,118.783186 192.714844,114.12503 192.714844,108.1875 C192.714844,102.132782 195.165991,97.3965015 200.068359,93.9785156 C204.970728,90.5605298 211.621052,88.8515625 220.019531,88.8515625 L232.558594,88.8515625 L232.558594,82.5820312 C232.558594,78.8710752 231.425793,75.9316515 229.160156,73.7636719 C226.89452,71.5956923 223.691427,70.5117188 219.550781,70.5117188 C215.839825,70.5117188 212.822277,71.4589749 210.498047,73.3535156 C208.173817,75.2480563 207.011719,77.5234242 207.011719,80.1796875 L195.996094,80.1796875 L195.878906,79.828125 C195.64453,75.218727 197.822243,71.0000191 202.412109,67.171875 C207.001976,63.3437309 212.929651,61.4296875 220.195312,61.4296875 C227.382848,61.4296875 233.164041,63.2558411 237.539062,66.9082031 C241.914084,70.5605651 244.101562,75.8241844 244.101562,82.6992188 L244.101562,113.226562 C244.101562,115.492199 244.218749,117.679677 244.453125,119.789062 C244.687501,121.898448 245.117184,123.96874 245.742188,126 L233.847656,126 Z M214.6875,117.5625 C218.867208,117.5625 222.636702,116.488292 225.996094,114.339844 C229.355486,112.191396 231.542964,109.730483 232.558594,106.957031 L232.558594,96.6445312 L219.609375,96.6445312 C214.960914,96.6445312 211.240248,97.8163945 208.447266,100.160156 C205.654283,102.503918 204.257812,105.257797 204.257812,108.421875 C204.257812,111.234389 205.13671,113.460929 206.894531,115.101562 C208.652353,116.742196 211.249983,117.5625 214.6875,117.5625 Z M10.546875,285 L10.546875,199.6875 L36.7382812,199.6875 C47.9102121,199.6875 56.8749662,203.1152 63.6328125,209.970703 C70.3906588,216.826206 73.7695312,225.683539 73.7695312,236.542969 L73.7695312,248.203125 C73.7695312,259.101617 70.3906588,267.95895 63.6328125,274.775391 C56.8749662,281.591831 47.9102121,285 36.7382812,285 L10.546875,285 Z M22.0898438,208.769531 L22.0898438,275.976562 L36.7382812,275.976562 C44.6289457,275.976562 50.8495866,273.378932 55.4003906,268.183594 C59.9511946,262.988255 62.2265625,256.328166 62.2265625,248.203125 L62.2265625,236.425781 C62.2265625,228.378866 59.9511946,221.757838 55.4003906,216.5625 C50.8495866,211.367162 44.6289457,208.769531 36.7382812,208.769531 L22.0898438,208.769531 Z M126.386719,285 C125.996092,283.085928 125.69336,281.396492 125.478516,279.931641 C125.263671,278.46679 125.136719,276.992195 125.097656,275.507812 C122.949208,278.554703 120.146502,281.103505 116.689453,283.154297 C113.232405,285.205088 109.511739,286.230469 105.527344,286.230469 C98.9257482,286.230469 93.8965017,284.541033 90.4394531,281.162109 C86.9824046,277.783186 85.2539062,273.12503 85.2539062,267.1875 C85.2539062,261.132782 87.7050536,256.396501 92.6074219,252.978516 C97.5097901,249.56053 104.160114,247.851562 112.558594,247.851562 L125.097656,247.851562 L125.097656,241.582031 C125.097656,237.871075 123.964855,234.931651 121.699219,232.763672 C119.433582,230.595692 116.230489,229.511719 112.089844,229.511719 C108.378888,229.511719 105.36134,230.458975 103.037109,232.353516 C100.712879,234.248056 99.5507812,236.523424 99.5507812,239.179688 L88.5351562,239.179688 L88.4179688,238.828125 C88.1835926,234.218727 90.3613052,230.000019 94.9511719,226.171875 C99.5410386,222.343731 105.468714,220.429688 112.734375,220.429688 C119.921911,220.429688 125.703103,222.255841 130.078125,225.908203 C134.453147,229.560565 136.640625,234.824184 136.640625,241.699219 L136.640625,272.226562 C136.640625,274.492199 136.757811,276.679677 136.992188,278.789062 C137.226564,280.898448 137.656247,282.96874 138.28125,285 L126.386719,285 Z M107.226562,276.5625 C111.406271,276.5625 115.175764,275.488292 118.535156,273.339844 C121.894548,271.191396 124.082026,268.730483 125.097656,265.957031 L125.097656,255.644531 L112.148438,255.644531 C107.499977,255.644531 103.779311,256.816395 100.986328,259.160156 C98.1933454,261.503918 96.796875,264.257797 96.796875,267.421875 C96.796875,270.234389 97.6757725,272.460929 99.4335938,274.101562 C101.191415,275.742196 103.789045,276.5625 107.226562,276.5625 Z M190.253906,268.183594 C190.253906,265.644519 189.287119,263.554696 187.353516,261.914062 C185.419912,260.273429 181.757839,258.847662 176.367188,257.636719 C168.671837,255.957023 162.880879,253.681655 158.994141,250.810547 C155.107402,247.939439 153.164063,244.023462 153.164063,239.0625 C153.164063,233.906224 155.351541,229.511737 159.726563,225.878906 C164.101584,222.246076 169.804652,220.429688 176.835938,220.429688 C184.218787,220.429688 190.087869,222.3242 194.443359,226.113281 C198.79885,229.902363 200.878907,234.511692 200.683594,239.941406 L200.566406,240.292969 L189.550781,240.292969 C189.550781,237.519517 188.388683,235.029308 186.064453,232.822266 C183.740223,230.615223 180.664082,229.511719 176.835938,229.511719 C172.734354,229.511719 169.68751,230.410147 167.695313,232.207031 C165.703115,234.003915 164.707031,236.171862 164.707031,238.710938 C164.707031,241.21095 165.585929,243.183587 167.34375,244.628906 C169.101571,246.074226 172.675754,247.363276 178.066406,248.496094 C186.074259,250.214852 192.03123,252.548813 195.9375,255.498047 C199.84377,258.44728 201.796875,262.402319 201.796875,267.363281 C201.796875,272.988309 199.521507,277.539045 194.970703,281.015625 C190.419899,284.492205 184.472693,286.230469 177.128906,286.230469 C169.042928,286.230469 162.675804,284.179708 158.027344,280.078125 C153.378883,275.976542 151.171874,271.191434 151.40625,265.722656 L151.523438,265.371094 L162.539063,265.371094 C162.734376,269.472677 164.257798,272.470694 167.109375,274.365234 C169.960952,276.259775 173.300762,277.207031 177.128906,277.207031 C181.230489,277.207031 184.443348,276.376961 186.767578,274.716797 C189.091808,273.056632 190.253906,270.87892 190.253906,268.183594 Z M227.695312,230.097656 C229.882823,227.050766 232.568343,224.677743 235.751953,222.978516 C238.935563,221.279288 242.460918,220.429688 246.328125,220.429688 C253.085971,220.429688 258.349591,222.460917 262.119141,226.523438 C265.888691,230.585958 267.773438,236.835895 267.773438,245.273438 L267.773438,285 L256.230469,285 L256.230469,245.15625 C256.230469,239.921849 255.107433,236.0547 252.861328,233.554688 C250.615223,231.054675 247.265647,229.804688 242.8125,229.804688 C239.609359,229.804688 236.708997,230.556633 234.111328,232.060547 C231.513659,233.564461 229.375008,235.605456 227.695312,238.183594 L227.695312,285 L216.152344,285 L216.152344,193.59375 L227.695312,193.59375 L227.695312,230.097656 Z M338.496094,255.703125 C338.496094,264.843796 336.29885,272.216769 331.904297,277.822266 C327.509744,283.427762 321.464882,286.230469 313.769531,286.230469 C309.589823,286.230469 305.957047,285.41993 302.871094,283.798828 C299.785141,282.177726 297.226573,279.785172 295.195312,276.621094 L293.789062,285 L284.355469,285 L284.355469,193.59375 L295.898438,193.59375 L295.898438,229.101562 C297.890635,226.289048 300.361313,224.140632 303.310547,222.65625 C306.25978,221.171868 309.707012,220.429688 313.652344,220.429688 C321.464883,220.429688 327.558572,223.554656 331.933594,229.804688 C336.308616,236.054719 338.496094,244.277293 338.496094,254.472656 L338.496094,255.703125 Z M326.953125,254.472656 C326.953125,247.206995 325.615248,241.27932 322.939453,236.689453 C320.263658,232.099586 316.191434,229.804688 310.722656,229.804688 C307.167951,229.804688 304.169934,230.673819 301.728516,232.412109 C299.287097,234.150399 297.343757,236.48436 295.898438,239.414062 L295.898438,266.894531 C297.38282,270.019547 299.32616,272.460929 301.728516,274.21875 C304.130871,275.976571 307.16795,276.855469 310.839844,276.855469 C316.269558,276.855469 320.312487,274.921894 322.96875,271.054688 C325.625013,267.187481 326.953125,262.070344 326.953125,255.703125 L326.953125,254.472656 Z M349.863281,252.714844 C349.863281,243.339797 352.402318,235.615265 357.480469,229.541016 C362.558619,223.466767 369.453081,220.429688 378.164062,220.429688 C386.953169,220.429688 393.896459,223.457001 398.994141,229.511719 C404.091822,235.566437 406.640625,243.300734 406.640625,252.714844 L406.640625,254.003906 C406.640625,263.457079 404.101588,271.191376 399.023438,277.207031 C393.945287,283.222686 387.031294,286.230469 378.28125,286.230469 C369.531206,286.230469 362.607447,283.212921 357.509766,277.177734 C352.412084,271.142548 349.863281,263.418016 349.863281,254.003906 L349.863281,252.714844 Z M361.40625,254.003906 C361.40625,260.72269 362.822251,266.269509 365.654297,270.644531 C368.486342,275.019553 372.695285,277.207031 378.28125,277.207031 C383.78909,277.207031 387.968736,275.019553 390.820312,270.644531 C393.671889,266.269509 395.097656,260.72269 395.097656,254.003906 L395.097656,252.714844 C395.097656,246.074186 393.662124,240.546897 390.791016,236.132812 C387.919908,231.718728 383.710965,229.511719 378.164062,229.511719 C372.656222,229.511719 368.486342,231.718728 365.654297,236.132812 C362.822251,240.546897 361.40625,246.074186 361.40625,252.714844 L361.40625,254.003906 Z M459.726562,285 C459.335936,283.085928 459.033204,281.396492 458.818359,279.931641 C458.603515,278.46679 458.476563,276.992195 458.4375,275.507812 C456.289052,278.554703 453.486345,281.103505 450.029297,283.154297 C446.572248,285.205088 442.851582,286.230469 438.867188,286.230469 C432.265592,286.230469 427.236345,284.541033 423.779297,281.162109 C420.322248,277.783186 418.59375,273.12503 418.59375,267.1875 C418.59375,261.132782 421.044897,256.396501 425.947266,252.978516 C430.849634,249.56053 437.499958,247.851562 445.898438,247.851562 L458.4375,247.851562 L458.4375,241.582031 C458.4375,237.871075 457.304699,234.931651 455.039062,232.763672 C452.773426,230.595692 449.570333,229.511719 445.429688,229.511719 C441.718731,229.511719 438.701183,230.458975 436.376953,232.353516 C434.052723,234.248056 432.890625,236.523424 432.890625,239.179688 L421.875,239.179688 L421.757812,238.828125 C421.523436,234.218727 423.701149,230.000019 428.291016,226.171875 C432.880882,222.343731 438.808557,220.429688 446.074219,220.429688 C453.261755,220.429688 459.042947,222.255841 463.417969,225.908203 C467.792991,229.560565 469.980469,234.824184 469.980469,241.699219 L469.980469,272.226562 C469.980469,274.492199 470.097655,276.679677 470.332031,278.789062 C470.566407,280.898448 470.996091,282.96874 471.621094,285 L459.726562,285 Z M440.566406,276.5625 C444.746115,276.5625 448.515608,275.488292 451.875,273.339844 C455.234392,271.191396 457.42187,268.730483 458.4375,265.957031 L458.4375,255.644531 L445.488281,255.644531 C440.839821,255.644531 437.119155,256.816395 434.326172,259.160156 C431.533189,261.503918 430.136719,264.257797 430.136719,267.421875 C430.136719,270.234389 431.015616,272.460929 432.773438,274.101562 C434.531259,275.742196 437.128889,276.5625 440.566406,276.5625 Z M516.738281,231.796875 L510.820312,231.445312 C507.773422,231.445312 505.205089,232.167962 503.115234,233.613281 C501.02538,235.058601 499.414068,237.089831 498.28125,239.707031 L498.28125,285 L486.738281,285 L486.738281,221.601562 L497.050781,221.601562 L498.164062,230.859375 C499.960946,227.578109 502.177721,225.01954 504.814453,223.183594 C507.451185,221.347647 510.488264,220.429688 513.925781,220.429688 C514.785161,220.429688 515.605465,220.498046 516.386719,220.634766 C517.167973,220.771485 517.812497,220.917968 518.320312,221.074219 L516.738281,231.796875 Z M524.121094,254.472656 C524.121094,244.277293 526.298806,236.054719 530.654297,229.804688 C535.009787,223.554656 541.113242,220.429688 548.964844,220.429688 C552.6758,220.429688 555.966783,221.113274 558.837891,222.480469 C561.708999,223.847663 564.160146,225.839831 566.191406,228.457031 L566.191406,193.59375 L577.734375,193.59375 L577.734375,285 L568.300781,285 L566.953125,277.207031 C564.882802,280.175796 562.343765,282.421867 559.335938,283.945312 C556.32811,285.468758 552.832051,286.230469 548.847656,286.230469 C541.113243,286.230469 535.058616,283.427762 530.683594,277.822266 C526.308572,272.216769 524.121094,264.843796 524.121094,255.703125 L524.121094,254.472656 Z M535.664062,255.703125 C535.664062,262.109407 536.972643,267.236309 539.589844,271.083984 C542.207044,274.93166 546.269504,276.855469 551.777344,276.855469 C555.214861,276.855469 558.105457,276.074227 560.449219,274.511719 C562.79298,272.949211 564.707024,270.761733 566.191406,267.949219 L566.191406,238.359375 C564.707024,235.742174 562.783215,233.662117 560.419922,232.119141 C558.056629,230.576164 555.21486,229.804688 551.894531,229.804688 C546.347629,229.804688 542.255873,232.089821 539.619141,236.660156 C536.982409,241.230492 535.664062,247.167932 535.664062,254.472656 L535.664062,255.703125 Z" id="Data-Dashboard"></path>
            </g>
            <path d="M1218,41.5 C1218,124 1218,207 1218,290.4" id="Shape" stroke="#326297" stroke-width="3.375"></path>
            <path d="M572.578125,224 L572.578125,81.8125 L616.230469,81.8125 C634.850354,81.8125 649.79161,87.5253335 661.054688,98.9511719 C672.317765,110.37701 677.949219,125.139232 677.949219,143.238281 L677.949219,162.671875 C677.949219,180.836028 672.317765,195.59825 661.054688,206.958984 C649.79161,218.319718 634.850354,224 616.230469,224 L572.578125,224 Z M591.816406,96.9492188 L591.816406,208.960938 L616.230469,208.960938 C629.381576,208.960938 639.749311,204.631554 647.333984,195.972656 C654.918658,187.313759 658.710938,176.213609 658.710938,162.671875 L658.710938,143.042969 C658.710938,129.631443 654.918658,118.596397 647.333984,109.9375 C639.749311,101.278603 629.381576,96.9492188 616.230469,96.9492188 L591.816406,96.9492188 Z M779.316406,187.378906 L719.746094,187.378906 L706.269531,224 L686.640625,224 L741.621094,81.8125 L758.125,81.8125 L812.226562,224 L792.597656,224 L779.316406,187.378906 Z M725.703125,171.265625 L773.554688,171.265625 L750.117188,106.519531 L749.53125,106.519531 L725.703125,171.265625 Z M852.070312,224 L832.734375,224 L832.734375,81.8125 L852.070312,81.8125 L852.070312,224 Z M888.300781,224 L888.300781,81.8125 L931.953125,81.8125 C950.57301,81.8125 965.514267,87.5253335 976.777344,98.9511719 C988.040421,110.37701 993.671875,125.139232 993.671875,143.238281 L993.671875,162.671875 C993.671875,180.836028 988.040421,195.59825 976.777344,206.958984 C965.514267,218.319718 950.57301,224 931.953125,224 L888.300781,224 Z M907.539062,96.9492188 L907.539062,208.960938 L931.953125,208.960938 C945.104232,208.960938 955.471967,204.631554 963.056641,195.972656 C970.641314,187.313759 974.433594,176.213609 974.433594,162.671875 L974.433594,143.042969 C974.433594,129.631443 970.641314,118.596397 963.056641,109.9375 C955.471967,101.278603 945.104232,96.9492188 931.953125,96.9492188 L907.539062,96.9492188 Z M1097.48047,188.160156 C1097.48047,181.649707 1095.03909,176.197288 1090.15625,171.802734 C1085.27341,167.408181 1076.61465,163.713557 1064.17969,160.71875 C1049.14055,157.138003 1037.40564,151.864618 1028.97461,144.898438 C1020.54358,137.932257 1016.32812,129.175834 1016.32812,118.628906 C1016.32812,107.561143 1020.8691,98.3164434 1029.95117,90.8945312 C1039.03325,83.4726191 1050.80071,79.7617188 1065.25391,79.7617188 C1080.81388,79.7617188 1093.19982,84.025999 1102.41211,92.5546875 C1111.6244,101.083376 1116.06771,110.97911 1115.74219,122.242188 L1115.54688,122.828125 L1097.1875,122.828125 C1097.1875,114.49475 1094.43688,107.756536 1088.93555,102.613281 C1083.43422,97.4700264 1075.54042,94.8984375 1065.25391,94.8984375 C1055.68355,94.8984375 1048.34312,97.0631294 1043.23242,101.392578 C1038.12172,105.722027 1035.56641,111.369757 1035.56641,118.335938 C1035.56641,124.520864 1038.33331,129.680318 1043.86719,133.814453 C1049.40107,137.948588 1058.38535,141.578109 1070.82031,144.703125 C1085.79435,148.414081 1097.18746,153.882776 1105,161.109375 C1112.81254,168.335974 1116.71875,177.287707 1116.71875,187.964844 C1116.71875,199.423234 1112.0313,208.635382 1102.65625,215.601562 C1093.2812,222.567743 1081.04174,226.050781 1065.9375,226.050781 C1051.74472,226.050781 1039.19602,222.209674 1028.29102,214.527344 C1017.38601,206.845014 1012.09635,196.558658 1012.42188,183.667969 L1012.61719,183.082031 L1030.97656,183.082031 C1030.97656,192.19666 1034.32939,199.130185 1041.03516,203.882812 C1047.74092,208.63544 1056.04162,211.011719 1065.9375,211.011719 C1075.63807,211.011719 1083.32028,208.960958 1088.98438,204.859375 C1094.64847,200.757792 1097.48047,195.191441 1097.48047,188.160156 Z" id="DAIDS" fill="#326496"></path>
            <g id="Desktop-HD-1" transform="translate(0.000000, 3.000000)" fill-rule="nonzero">
                <g id="Desktop-HD">
                    <g id="nihbanner3">
                        <g id="NIHBanner2">
                            <g id="Artboard-2-1">
                                <g id="Artboard-2">
                                    <g id="Group-2">
                                        <path d="M409.804885,0 C409.804885,0 415.534313,2.7 420.057546,6.1 C424.580778,9.5 426.490588,14 426.490588,14 L505.797935,155.3 C505.797935,155.3 431.114337,289.9 426.892653,297 C422.771485,304.1 424.982844,300.3 420.057546,306.4 C415.031732,312.4 403.874424,314.1 403.874424,314.1 L374.021088,313.8 L461.671287,155.8 L374.925735,0 L409.804885,0 Z" id="Path_1_" fill="#326297"></path>
                                        <path d="M355.32506,3.3 L355.32506,1.5 L220.633241,1.5 L36.6884432,1.5 C16.6857029,1.5 0.502581414,17.6 0.502581414,37.5 L0.502581414,280.5 C0.502581414,300.4 16.6857029,316.5 36.6884432,316.5 L220.633241,316.5 L355.32506,316.5 L355.32506,314.9 L356.330222,315 L441.970095,157.4 L356.12919,3 L355.32506,3.3 Z" id="Combined-Shape" stroke="#65666A" fill="#65666A"></path>
                                    </g>
                                </g>
                            </g>
                            <g id="Group" transform="translate(52.268467, 86.000000)" fill="#FFFFFF">
                                <polygon id="Path-2" points="0.502581414 141 25.1290707 141 25.933201 38.3 89.1579428 142 116.598888 142 115.593725 1 92.4749801 0.9 91.8718824 103.9 27.8430103 1.9 1.00516283 1"></polygon>
                                <polygon id="Path-4" points="140.722796 1 164.846704 1.3 164.846704 142 140.722796 142"></polygon>
                                <polygon id="Path-5" points="188.970612 1 214.099682 1 213.798133 57 278.430103 57.3 278.028038 2 303.559174 2 303.559174 142 278.430103 142 278.430103 80 214.099682 80 214.401231 142 188.970612 142"></polygon>
                            </g>
                        </g>
                    </g>
                </g>
            </g>
        </g>
    </g>
</svg>